<svg width="468" height="352" viewBox="0 0 468 352" fill="none" xmlns="http://www.w3.org/2000/svg">
<path d="M402.875 202.032C386.51 202.127 372.345 206.054 360.462 211.904C356.075 203.217 351.687 195.634 350.956 189.967C350.13 183.385 349.128 179.364 350.13 171.503C351.132 163.642 355.709 152.49 355.709 151.576C355.622 150.75 354.7 146.728 345.289 146.64C335.878 146.552 327.739 148.468 326.825 150.94C325.192 155.506 323.878 160.181 322.891 164.929C321.245 173.521 304.061 203.963 294.277 219.963C291.074 213.747 288.332 208.263 287.783 203.875C286.957 197.294 285.955 193.272 286.957 185.411C287.959 177.55 292.537 166.399 292.537 165.484C292.449 164.658 291.527 160.636 282.116 160.549C272.705 160.461 264.566 162.377 263.652 164.848C262.738 167.32 261.729 173.17 259.718 178.837C257.795 184.504 234.943 235.333 229.006 248.584C225.985 255.348 223.338 260.744 221.415 264.401C219.492 268.057 221.327 264.679 221.145 265.044L218.585 269.892V269.98C217.306 272.269 215.931 274.463 215.295 274.463C214.841 274.463 213.92 268.335 215.477 259.925C218.863 242.28 227.09 214.763 226.995 213.762C226.995 213.308 228.552 208.46 221.693 205.988C215.017 203.517 212.64 207.634 212.092 207.634C211.543 207.634 211.083 209.096 211.083 209.096C211.083 209.096 218.49 178.106 196.911 178.106C183.383 178.106 164.736 192.826 155.5 206.259L108.876 231.765L107.867 230.668C81.7391 202.764 33.3816 183.02 35.3925 145.543C36.1237 131.92 40.8769 95.9938 128.261 52.4844C199.836 16.836 257.159 26.6128 267.126 48.3675C281.297 79.4456 236.501 137.214 162.089 145.551C133.753 148.753 118.85 137.777 115.099 133.668C111.165 129.368 110.616 129.185 109.154 130.012C106.777 131.291 108.24 135.13 109.154 137.419C111.347 143.181 120.488 153.419 136.027 158.538C149.65 163.02 182.922 165.484 223.148 149.945C268.215 132.483 303.41 84.0379 293.078 43.5486C282.562 2.32068 214.19 -11.2075 149.555 11.7392C111.077 25.4355 69.4687 46.8172 39.4875 74.8826C3.76593 108.154 -1.90125 137.229 0.467997 149.295C8.78962 192.351 68.1086 220.416 91.8742 241.169L88.5836 242.997C76.7008 248.847 31.4511 272.525 20.1167 297.57C7.31981 325.906 22.1276 346.293 31.9995 349.036C62.5292 357.54 93.7901 342.271 110.704 317.131C127.523 291.991 125.512 259.362 117.746 244.459L117.468 243.911L126.791 238.427C132.824 234.858 138.769 231.568 143.976 228.738C141.051 236.694 138.945 246.105 137.848 259.816C136.568 275.903 143.15 296.744 151.837 304.978C155.676 308.546 160.246 308.634 163.083 308.634C173.138 308.634 177.708 300.312 182.739 290.353C188.955 278.192 194.439 264.115 194.439 264.115C194.439 264.115 187.58 302.236 206.322 302.236C213.181 302.236 220.033 293.365 223.141 288.795V288.883C223.141 288.883 223.324 288.605 223.689 287.969C224.421 286.872 224.786 286.228 224.786 286.228V286.046C227.528 281.293 233.656 270.412 242.797 252.408C254.592 229.191 265.926 200.124 265.926 200.124C265.926 200.124 267.023 207.253 270.409 218.953C272.42 225.9 276.807 233.491 280.193 240.891L275.806 246.924L275.893 247.019C273.554 250.119 271.145 253.167 268.669 256.159C259.345 267.311 248.194 280.02 246.731 283.676C244.991 287.976 245.356 291.172 248.742 293.731C251.214 295.559 255.601 295.925 260.259 295.559C268.669 295.011 274.519 292.905 277.444 291.625C282.721 289.744 287.706 287.127 292.251 283.852C301.392 277.088 306.971 267.487 306.423 254.69C306.145 247.648 303.864 240.701 301.026 234.12L303.498 230.463C317.94 209.345 329.092 186.128 329.092 186.128C329.092 186.128 330.189 193.257 333.574 204.957C335.315 210.902 338.788 217.389 341.896 223.787C328.368 234.851 319.863 247.648 316.938 256.057C311.542 271.596 315.746 278.638 323.702 280.283C327.271 281.015 332.39 279.369 336.229 277.724C340.982 276.166 346.744 273.519 352.046 269.585C361.186 262.821 369.961 253.403 369.508 240.701C369.23 234.851 367.68 229.089 365.574 223.604C377.091 218.851 391.994 216.109 410.911 218.39C451.591 223.144 459.635 248.554 458.077 259.158C456.519 269.761 448.022 275.611 445.185 277.439C442.348 279.179 441.434 279.815 441.712 281.095C442.077 283.018 443.357 282.923 445.828 282.558C449.214 282.009 467.218 273.87 467.949 254.309C469.046 229.169 445.185 201.747 402.868 202.025L402.875 202.032ZM89.1394 307.808C75.699 322.528 56.7816 328.1 48.7378 323.347C40.0506 318.316 43.4362 296.656 59.9844 281.022C70.0391 271.516 83.1139 262.741 91.7061 257.344L100.028 252.313C100.576 251.947 100.942 251.765 100.942 251.765C101.585 251.399 102.316 250.938 103.048 250.485C109.176 272.788 103.326 292.349 89.154 307.8L89.1394 307.808ZM187.419 240.986C182.754 252.415 172.882 281.753 166.944 280.108C161.826 278.733 158.718 256.525 165.935 234.58C169.591 223.516 177.365 210.354 181.935 205.235C189.343 197.009 197.386 194.266 199.397 197.645C201.774 202.032 190.344 233.842 187.419 240.979V240.986ZM268.5 279.742C266.489 280.751 264.661 281.483 263.835 280.934C263.192 280.569 264.661 279.194 264.661 279.194C264.661 279.194 274.811 268.313 278.833 263.289L286.789 253.139V254.236C286.789 267.399 274.175 276.174 268.508 279.742H268.5ZM331.022 265.483C329.56 264.386 329.743 261 334.679 250.397C336.602 246.193 340.989 239.151 348.572 232.482C349.486 235.224 350.035 237.878 349.947 240.343C349.852 256.796 338.152 262.924 331.022 265.483Z" fill="#303F9F"/>
</svg>
