<svg width="802" height="648" viewBox="0 0 802 648" fill="none" xmlns="http://www.w3.org/2000/svg">
<g clip-path="url(#clip0)">
<path d="M769.821 0.00102288H529.206C517.595 0.000454221 506.329 3.95048 497.26 11.2018C488.191 18.4531 481.86 28.5741 479.306 39.901L357.73 579.169C356.404 585.051 356.381 591.152 357.662 597.044C358.943 602.936 361.497 608.476 365.146 613.277C368.794 618.077 373.449 622.021 378.783 624.833C384.117 627.644 390.002 629.254 396.024 629.551L643.379 641.738C656.624 642.391 669.654 638.202 680.038 629.953C690.421 621.704 697.449 609.959 699.809 596.91L768.779 215.643L773.91 217.109L787.11 144.844L781.829 143.524L801.08 37.098C801.905 32.5394 801.714 27.855 800.521 23.3787C799.328 18.9023 797.162 14.7444 794.177 11.2012C791.193 7.65801 787.463 4.8169 783.255 2.8804C779.046 0.943909 774.462 -0.0402727 769.83 -0.00197547L769.821 0.00102288Z" fill="#3F3D56"/>
<path d="M560.879 11.626H532.795C524.729 11.6261 516.906 14.3846 510.624 19.4438C504.342 24.503 499.979 31.5584 498.259 39.439L381.559 574.307C380.887 577.386 380.887 580.575 381.56 583.654C382.233 586.734 383.563 589.631 385.459 592.15C387.355 594.668 389.772 596.747 392.545 598.245C395.319 599.744 398.383 600.626 401.528 600.831L648.079 616.991C655.035 617.447 661.915 615.326 667.406 611.032C672.898 606.739 676.616 600.574 677.852 593.714L777.432 40.876C778.076 37.2978 777.928 33.6218 776.996 30.1074C776.065 26.593 774.374 23.3258 772.042 20.5364C769.71 17.7469 766.794 15.5033 763.501 13.9637C760.207 12.4241 756.616 11.6261 752.98 11.626H726.337C723.758 11.6259 721.251 12.476 719.204 14.0446C717.157 15.6132 715.685 17.8128 715.014 20.303C714.422 22.5021 713.121 24.4446 711.313 25.8296C709.506 27.2146 707.291 27.9648 705.014 27.964H578.526C574.068 27.9638 569.773 26.2811 566.502 23.2522C563.23 20.2233 561.222 16.0712 560.879 11.626Z" fill="white"/>
<path d="M697.173 385.544C697.652 385.561 698.122 385.404 698.496 385.103C698.869 384.803 699.123 384.378 699.209 383.906L753.732 82.989C753.784 82.703 753.774 82.4091 753.702 82.1275C753.63 81.8458 753.498 81.583 753.315 81.357C753.134 81.1328 752.906 80.9512 752.646 80.8252C752.387 80.6992 752.103 80.6319 751.815 80.628L503.756 77.698H503.733C503.283 77.7018 502.847 77.8584 502.497 78.1422C502.148 78.426 501.905 78.8201 501.808 79.26L437.532 370.41C437.469 370.694 437.469 370.988 437.53 371.273C437.591 371.557 437.714 371.825 437.888 372.058C438.061 372.289 438.282 372.479 438.537 372.615C438.792 372.75 439.073 372.828 439.361 372.843L697.173 385.544Z" fill="#C5CFD6"/>
<path d="M481.908 405C481.682 405 481.464 405.077 481.287 405.217C481.11 405.357 480.986 405.553 480.935 405.773L478.612 415.729C478.579 415.87 478.577 416.016 478.606 416.157C478.635 416.299 478.694 416.432 478.78 416.549C478.865 416.665 478.975 416.762 479.102 416.832C479.228 416.902 479.368 416.943 479.512 416.954L610.742 426.281C610.985 426.296 611.226 426.223 611.42 426.075C611.613 425.927 611.747 425.713 611.795 425.474L614.029 413.955C614.056 413.815 614.053 413.671 614.02 413.533C613.987 413.394 613.924 413.265 613.837 413.152C613.75 413.04 613.64 412.947 613.514 412.881C613.388 412.814 613.249 412.776 613.107 412.767L481.969 405.002L481.908 405Z" fill="#C5CFD6"/>
<path d="M641.345 463.262C641.582 463.281 641.817 463.215 642.01 463.076C642.202 462.937 642.339 462.735 642.396 462.504L645.24 450.961C645.275 450.82 645.278 450.672 645.25 450.529C645.222 450.386 645.164 450.251 645.078 450.133C644.992 450.015 644.882 449.918 644.754 449.847C644.627 449.776 644.485 449.734 644.34 449.724L476.751 438.003C476.524 437.985 476.297 438.046 476.109 438.176C475.922 438.306 475.785 438.497 475.722 438.716L472.767 448.691C472.725 448.834 472.715 448.984 472.738 449.131C472.762 449.277 472.817 449.417 472.901 449.54C472.986 449.663 473.096 449.765 473.225 449.839C473.353 449.914 473.497 449.959 473.645 449.971L641.345 463.262Z" fill="#C5CFD6"/>
<path d="M632.345 500.262C632.582 500.281 632.817 500.215 633.01 500.076C633.202 499.937 633.339 499.735 633.396 499.504L636.24 487.961C636.275 487.82 636.278 487.672 636.25 487.529C636.222 487.386 636.164 487.251 636.078 487.133C635.992 487.015 635.882 486.918 635.754 486.847C635.627 486.776 635.485 486.734 635.34 486.724L467.751 475.003C467.524 474.985 467.297 475.046 467.109 475.176C466.922 475.306 466.785 475.497 466.722 475.716L463.767 485.691C463.725 485.834 463.715 485.984 463.738 486.131C463.762 486.277 463.817 486.417 463.901 486.54C463.986 486.663 464.096 486.765 464.225 486.839C464.353 486.914 464.497 486.959 464.645 486.971L632.345 500.262Z" fill="#C5CFD6"/>
<path d="M341.778 630.52C341.778 638.889 265.173 639.78 170.889 645.673C76.689 651.56 0 638.889 0 630.52C0 622.151 77.047 605.313 170.889 615.367C265.173 625.469 341.778 622.151 341.778 630.52Z" fill="#C5CFD6"/>
<path d="M555.16 563.514C555.399 563.539 555.638 563.476 555.834 563.337C556.03 563.199 556.168 562.993 556.224 562.76L562.237 538.709C562.272 538.568 562.277 538.422 562.25 538.279C562.223 538.137 562.165 538.002 562.081 537.884C561.996 537.766 561.888 537.668 561.762 537.596C561.636 537.525 561.495 537.481 561.351 537.469L458.435 528.813C458.195 528.796 457.956 528.866 457.762 529.008C457.568 529.151 457.431 529.358 457.375 529.592L452.246 552.675C452.215 552.814 452.214 552.957 452.243 553.096C452.272 553.235 452.33 553.366 452.414 553.481C452.497 553.596 452.604 553.691 452.727 553.761C452.851 553.832 452.988 553.875 453.129 553.888L555.16 563.514Z" fill="#603F83"/>
<path d="M94.512 626.661H107.985L114.395 574.694L94.51 574.695L94.512 626.661Z" fill="#A0616A"/>
<path d="M91.0757 622.263L117.609 622.262H117.61C122.094 622.262 126.395 624.043 129.566 627.214C132.737 630.385 134.518 634.686 134.519 639.17V639.72L91.0765 639.721L91.0757 622.263Z" fill="#2F2E41"/>
<path d="M183.512 626.661H196.985L203.395 574.694L183.51 574.695L183.512 626.661Z" fill="#A0616A"/>
<path d="M180.076 622.263L206.609 622.262H206.61C211.094 622.262 215.395 624.043 218.566 627.214C221.737 630.385 223.518 634.686 223.519 639.17V639.72L180.077 639.721L180.076 622.263Z" fill="#2F2E41"/>
<path d="M83.231 615.392H118.132L140.439 420.069L181.453 615.392H205.002V382.476L93.038 348.968L83.231 615.392Z" fill="#35353F"/>
<path d="M142.74 177.111C159.549 177.111 173.176 163.485 173.176 146.675C173.176 129.866 159.549 116.24 142.74 116.24C125.93 116.24 112.304 129.866 112.304 146.675C112.304 163.485 125.93 177.111 142.74 177.111Z" fill="#A0616A"/>
<path d="M95.4902 353.872C128.148 379.412 164.196 392.286 205.002 387.379C187.768 326.868 182.656 266.815 199.281 207.584L164.957 192.056L126.373 189.604L98.3308 197.852C94.386 199.014 90.9325 201.44 88.5019 204.757C86.0714 208.074 84.7987 212.098 84.8799 216.21C85.87 266.723 82.5116 313.997 95.4902 353.872Z" fill="#603F83"/>
<path d="M113.61 131.37C116.538 125.845 120.259 114.835 126.169 112.793C129.451 111.705 132.843 110.982 136.283 110.638L146.329 114.502L140.862 110.25C141.926 110.186 142.99 110.135 144.053 110.094L150.831 112.701L147.363 110.004C153.682 109.939 160.204 110.596 165.101 114.443C169.275 117.722 173.41 130.145 174.079 135.41C174.794 140.448 174.543 145.575 173.342 150.519L171.625 152.151C171.025 150.774 170.573 149.337 170.278 147.865C169.663 145.113 168.481 142.519 166.808 140.249C165.135 137.98 163.007 136.083 160.561 134.681L160.467 134.629C157.589 133.008 154.095 133.083 150.794 133.202L135.115 133.766C131.343 133.902 127.281 134.14 124.34 136.507C122.353 138.105 121.163 140.464 120.031 142.748C118.57 145.697 115.714 156.822 115.714 156.822C115.714 156.822 114.099 154.722 113.324 156.285C112.083 152.207 111.328 147.997 111.075 143.741C110.828 139.467 111.702 135.203 113.61 131.37Z" fill="#191847"/>
<path d="M495.026 420.086C500.462 420.086 504.869 415.679 504.869 410.243C504.869 404.807 500.462 400.4 495.026 400.4C489.589 400.4 485.183 404.807 485.183 410.243C485.183 415.679 489.589 420.086 495.026 420.086Z" fill="#C5CFD6"/>
<path d="M536.038 420.086C541.474 420.086 545.881 415.679 545.881 410.243C545.881 404.807 541.474 400.4 536.038 400.4C530.602 400.4 526.195 404.807 526.195 410.243C526.195 415.679 530.602 420.086 536.038 420.086Z" fill="#C5CFD6"/>
<path d="M114.633 373.824C114.626 372.299 114.284 370.794 113.633 369.415C112.981 368.036 112.035 366.817 110.861 365.843C109.687 364.87 108.314 364.165 106.839 363.779C105.363 363.394 103.821 363.336 102.321 363.611L84.055 331.349L76.5186 346.797L93.9747 376.509C94.6034 378.999 96.1235 381.171 98.247 382.615C100.371 384.059 102.95 384.673 105.496 384.343C108.043 384.012 110.379 382.758 112.063 380.82C113.747 378.881 114.661 376.392 114.633 373.824V373.824Z" fill="#A0616A"/>
<path d="M196.305 409.689C195.584 408.345 195.166 406.86 195.082 405.337C194.997 403.814 195.247 402.291 195.815 400.875C196.383 399.46 197.254 398.186 198.367 397.143C199.48 396.101 200.808 395.315 202.258 394.841L202.933 357.774L218.821 368.671L215.744 402.2C216.378 404.689 216.078 407.323 214.899 409.605C213.721 411.886 211.747 413.656 209.351 414.579C206.954 415.502 204.303 415.514 201.899 414.613C199.494 413.712 197.504 411.96 196.305 409.689H196.305Z" fill="#A0616A"/>
<path d="M85.6832 369.4L98.7592 357.141L92.0486 290.944L99.8125 197.368C82.9471 202.669 64.8381 216.908 61.8553 234.333L51.186 296.664L85.6832 369.4Z" fill="#603F83"/>
<path opacity="0.2" d="M93.275 255.393L82.65 297.89L98.759 358.194L88.371 301.159L93.275 255.393Z" fill="white"/>
<path d="M198.464 392.283L219.713 394.735L214.737 236.95C214.515 229.9 212.267 223.063 208.262 217.256C204.258 211.449 198.666 206.919 192.154 204.206L184.571 201.046L186.614 275.007L198.464 392.283Z" fill="#603F83"/>
<path opacity="0.2" d="M190.509 277.424L198.71 368.486L184.823 278.059L190.509 277.424Z" fill="white"/>
</g>
<defs>
<clipPath id="clip0">
<rect width="801.575" height="647.182" fill="white"/>
</clipPath>
</defs>
</svg>
