<svg width="775" height="544" viewBox="0 0 775 544" fill="none" xmlns="http://www.w3.org/2000/svg">
<g clip-path="url(#clip0)">
<path d="M36.5073 507.142C40.1896 508.436 44.1432 508.76 47.9871 508.083C51.8311 507.406 55.4359 505.751 58.4543 503.276C66.1413 496.824 68.5543 486.195 70.5123 476.352L76.3123 447.24L64.1693 455.602C55.4363 461.615 46.5073 467.821 40.4603 476.531C34.4133 485.241 31.7743 497.131 36.6323 506.555" fill="#E4E4E4"/>
<path d="M37.5453 542.388C36.3163 533.435 35.0523 524.368 35.9143 515.319C36.6803 507.283 39.1313 499.434 44.1233 492.998C46.7729 489.588 49.9968 486.667 53.6503 484.365C54.6033 483.765 55.4793 485.274 54.5313 485.872C48.2101 489.867 43.3207 495.766 40.5683 502.719C37.5283 510.451 37.0403 518.88 37.5683 527.093C37.8853 532.06 38.5563 536.993 39.2333 541.923C39.2878 542.146 39.255 542.381 39.1416 542.581C39.0282 542.781 38.8428 542.929 38.6233 542.997C38.4 543.057 38.162 543.027 37.9609 542.913C37.7598 542.798 37.6119 542.61 37.5493 542.387L37.5453 542.388Z" fill="#C7D3D4"/>
<path d="M763.435 302.795H133.183C130.376 302.792 127.685 301.676 125.701 299.691C123.716 297.706 122.599 295.015 122.596 292.208V10.5872C122.599 7.78032 123.716 5.08928 125.701 3.10448C127.685 1.11968 130.376 0.00320779 133.183 0H763.435C766.242 0.00320779 768.933 1.11968 770.918 3.10448C772.903 5.08928 774.019 7.78032 774.022 10.5872V292.208C774.019 295.015 772.903 297.706 770.918 299.691C768.933 301.676 766.242 302.792 763.435 302.795V302.795Z" fill="white"/>
<path d="M763.435 302.795H133.183C130.376 302.792 127.685 301.676 125.701 299.691C123.716 297.706 122.599 295.015 122.596 292.208V10.5872C122.599 7.78032 123.716 5.08928 125.701 3.10448C127.685 1.11968 130.376 0.00320779 133.183 0H763.435C766.242 0.00320779 768.933 1.11968 770.918 3.10448C772.903 5.08928 774.019 7.78032 774.022 10.5872V292.208C774.019 295.015 772.903 297.706 770.918 299.691C768.933 301.676 766.242 302.792 763.435 302.795V302.795ZM133.183 4.23489C131.499 4.23673 129.884 4.90659 128.694 6.09749C127.503 7.28839 126.833 8.90307 126.831 10.5872V292.208C126.833 293.892 127.503 295.507 128.694 296.698C129.884 297.889 131.499 298.559 133.183 298.56H763.435C765.119 298.559 766.734 297.889 767.925 296.698C769.116 295.507 769.786 293.892 769.788 292.208V10.5872C769.786 8.90307 769.116 7.28839 767.925 6.09749C766.734 4.90659 765.119 4.23673 763.435 4.23489H133.183Z" fill="#CACACA"/>
<path d="M553.744 215H507.744V261H553.744V215Z" fill="#C7D3D4"/>
<path d="M342.744 99H296.744V145H342.744V99Z" fill="#C7D3D4"/>
<path d="M547.744 68H501.744V114H547.744V68Z" fill="#603F83"/>
<path d="M412.744 61H366.744V107H412.744V61Z" fill="#603F83"/>
<path d="M481.744 147H435.744V193H481.744V147Z" fill="black"/>
<path d="M650.744 68H604.744V114H650.744V68Z" fill="black"/>
<path d="M650.744 164H604.744V210H650.744V164Z" fill="#C7D3D4"/>
<path d="M315.537 293.132C315.868 291.422 315.821 289.66 315.397 287.971C314.974 286.281 314.185 284.705 313.087 283.353C311.988 282.001 310.607 280.907 309.04 280.147C307.472 279.386 305.757 278.979 304.016 278.953L293.955 253.653L277.089 256.017L291.798 291.546C291.949 294.475 293.169 297.247 295.227 299.337C297.284 301.426 300.037 302.688 302.963 302.884C305.889 303.079 308.786 302.194 311.103 300.397C313.42 298.6 314.998 296.015 315.537 293.132H315.537Z" fill="#9F616A"/>
<path d="M284.464 284.243L279.238 271.781L246.671 209.789L248.442 95.0834L248.782 95.0384C269.62 92.2852 283.72 188.301 284.31 192.391L304.886 262.763L309.785 278.274L284.464 284.243Z" fill="#603F83"/>
<path d="M234.424 526.119L250.258 526.118L257.79 465.043L234.421 465.044L234.424 526.119Z" fill="#9F616A"/>
<path d="M230.384 520.949L261.568 520.948H261.569C266.839 520.948 271.894 523.042 275.62 526.768C279.347 530.495 281.441 535.549 281.441 540.82V541.466L230.385 541.467L230.384 520.949Z" fill="#2F2E41"/>
<path d="M88.834 501.994L101.826 511.047L142.925 465.246L123.751 451.885L88.834 501.994Z" fill="#9F616A"/>
<path d="M88.4763 495.444L114.061 513.271L114.062 513.272C118.385 516.286 121.335 520.893 122.262 526.081C123.189 531.27 122.017 536.614 119.004 540.938L118.635 541.467L76.7457 512.278L88.4763 495.444Z" fill="#2F2E41"/>
<path d="M225.721 511.763L225.037 397.191L215.074 325.15L196.499 388.504L196.463 388.556L129.151 486.279L102.959 473.008L103.102 472.667C104.703 468.86 142.42 379.442 152.558 379.442C153.444 379.504 154.331 379.35 155.143 378.993C155.956 378.636 156.669 378.087 157.222 377.393C160.198 373.419 157.775 364.988 157.75 364.903C154.848 352.869 162.145 348.771 163.598 348.087L167.507 267.392L167.912 267.42L273.886 274.853L269.44 375.743L259.876 507.929L259.548 507.967L225.721 511.763Z" fill="#3F3D56"/>
<path d="M276 292L275.548 291.963L163 282.745L163.278 244.907L168.786 146.111L168.818 146.043L191.251 96.5572L207.153 89.2406L230.355 88L230.411 88.0144L251.585 93.3447L273.612 254.005L276 292Z" fill="#603F83"/>
<path d="M232.964 76.7809C247.506 68.8316 252.85 50.599 244.901 36.0572C236.951 21.5154 218.719 16.1711 204.177 24.1204C189.635 32.0696 184.291 50.3023 192.24 64.8441C200.189 79.3859 218.422 84.7301 232.964 76.7809Z" fill="#9F616A"/>
<path d="M188.392 57.9831V46.2915C188.392 46.2915 178.964 35.1869 189.335 32.3896C189.335 32.3896 192.164 4.41696 216.678 17.4708C216.678 17.4708 250.621 11.8763 246.85 31.4572C246.85 31.4572 255.336 26.3453 252.507 39.3992L247.036 60.4267C247.036 60.4267 249.678 46.5365 241.193 44.6716L236.478 41.8744C236.478 41.8744 223.278 54.9283 203.478 39.0771C203.478 39.0771 194.992 37.0517 195.935 45.4435C196.878 53.8353 188.392 57.9831 188.392 57.9831Z" fill="#2F2E41"/>
<path d="M215.446 264.573C215.465 262.831 215.102 261.106 214.382 259.52C213.662 257.934 212.604 256.525 211.28 255.392C209.957 254.259 208.402 253.43 206.724 252.964C205.045 252.497 203.285 252.404 201.567 252.691L187.13 229.607L170.961 234.959L191.808 267.272C192.482 270.127 194.179 272.634 196.579 274.321C198.978 276.007 201.912 276.755 204.826 276.422C207.74 276.089 210.43 274.699 212.388 272.515C214.345 270.331 215.433 267.505 215.446 264.573V264.573Z" fill="#9F616A"/>
<path d="M179.12 258.775L153 205.745L153.023 205.616C153.128 205.029 163.642 146.649 171.684 125.191C179.776 103.597 190.853 99.2609 191.321 99.087L191.554 99L201.486 108.527L187.728 200.359L202.558 244.648L179.12 258.775Z" fill="#603F83"/>
<path d="M367 238H321V284H367V238Z" fill="black"/>
<path d="M382 543H1C0.734784 543 0.480429 542.895 0.292892 542.707C0.105356 542.52 0 542.265 0 542C0 541.735 0.105356 541.48 0.292892 541.293C0.480429 541.105 0.734784 541 1 541H382C382.265 541 382.52 541.105 382.707 541.293C382.895 541.48 383 541.735 383 542C383 542.265 382.895 542.52 382.707 542.707C382.52 542.895 382.265 543 382 543Z" fill="#CACACA"/>
</g>
<defs>
<clipPath id="clip0">
<rect width="774.022" height="543.027" fill="white"/>
</clipPath>
</defs>
</svg>
