<svg width="895" height="636" viewBox="0 0 895 636" fill="none" xmlns="http://www.w3.org/2000/svg">
<path d="M419.241 233.767L355.953 237.109C355.953 237.109 361.235 275.558 326.996 279.215C292.757 282.871 261.63 271.902 249.18 299.326C236.729 326.75 242.096 424.4 242.096 424.4C242.096 424.4 265.441 523.127 284.116 537.754C302.792 552.38 466.206 532.269 466.206 532.269L534.596 430.826L532.28 352.593C531.07 311.74 500.403 262.844 466.206 270.404C465.535 270.553 451.494 270.233 450.813 270.404C450.813 270.404 460.69 282.512 440.077 270.404C427.472 263 419.241 233.767 419.241 233.767Z" fill="#603F83"/>
<path d="M319.134 492.961C323.431 492.961 326.915 488.868 326.915 483.819C326.915 478.771 323.431 474.678 319.134 474.678C314.836 474.678 311.352 478.771 311.352 483.819C311.352 488.868 314.836 492.961 319.134 492.961Z" fill="#6C63FF"/>
<path d="M474.766 502.102C479.064 502.102 482.548 498.009 482.548 492.961C482.548 487.912 479.064 483.819 474.766 483.819C470.469 483.819 466.985 487.912 466.985 492.961C466.985 498.009 470.469 502.102 474.766 502.102Z" fill="#6C63FF"/>
<path d="M578.484 613.886V620.011C578.487 621.692 578.222 623.358 577.702 624.924C577.472 625.622 577.193 626.297 576.869 626.942C575.846 628.961 574.393 630.632 572.654 631.792C570.915 632.952 568.949 633.562 566.949 633.561H183.425C181.425 633.562 179.459 632.952 177.72 631.792C175.981 630.632 174.528 628.961 173.505 626.942C173.181 626.297 172.902 625.622 172.672 624.924C172.152 623.358 171.887 621.692 171.89 620.011V613.886C171.89 612.108 172.187 610.346 172.767 608.702C173.346 607.058 174.195 605.565 175.265 604.307C176.336 603.048 177.607 602.05 179.006 601.369C180.405 600.688 181.904 600.337 183.418 600.336H205.532V597.481C205.532 597.407 205.544 597.334 205.568 597.265C205.592 597.197 205.627 597.134 205.672 597.082C205.716 597.029 205.769 596.988 205.827 596.959C205.886 596.931 205.948 596.916 206.011 596.916H217.547C217.674 596.916 217.797 596.975 217.887 597.081C217.977 597.186 218.028 597.33 218.028 597.479V600.336H225.234V597.481C225.234 597.407 225.246 597.334 225.27 597.265C225.294 597.197 225.329 597.134 225.374 597.082C225.419 597.03 225.471 596.988 225.53 596.959C225.588 596.931 225.65 596.916 225.713 596.916H237.249C237.377 596.916 237.499 596.975 237.589 597.081C237.679 597.186 237.73 597.33 237.73 597.479V600.336H244.945V597.481C244.945 597.407 244.957 597.334 244.981 597.265C245.005 597.197 245.04 597.134 245.085 597.082C245.129 597.03 245.182 596.988 245.24 596.959C245.299 596.931 245.361 596.916 245.424 596.916H256.96C257.088 596.916 257.21 596.975 257.3 597.081C257.39 597.186 257.441 597.33 257.441 597.479V600.336H264.647V597.481C264.647 597.407 264.659 597.334 264.683 597.265C264.707 597.197 264.743 597.134 264.787 597.082C264.832 597.03 264.885 596.988 264.943 596.959C265.001 596.931 265.063 596.916 265.126 596.916H276.663C276.79 596.916 276.912 596.975 277.002 597.081C277.093 597.186 277.143 597.33 277.144 597.479V600.336H284.349V597.481C284.349 597.407 284.362 597.334 284.386 597.265C284.41 597.197 284.445 597.135 284.489 597.082C284.534 597.03 284.587 596.988 284.645 596.959C284.703 596.931 284.766 596.916 284.829 596.916H296.365C296.492 596.916 296.614 596.975 296.705 597.081C296.795 597.186 296.846 597.33 296.846 597.479V600.336H304.06V597.481C304.06 597.407 304.072 597.334 304.096 597.265C304.121 597.197 304.156 597.135 304.2 597.082C304.245 597.03 304.298 596.988 304.356 596.959C304.414 596.931 304.477 596.916 304.54 596.916H316.076C316.203 596.916 316.325 596.975 316.415 597.081C316.506 597.186 316.556 597.33 316.557 597.479V600.337H323.763V597.481C323.762 597.407 323.775 597.334 323.799 597.265C323.823 597.197 323.858 597.135 323.903 597.082C323.947 597.03 324 596.988 324.058 596.959C324.116 596.931 324.179 596.916 324.242 596.916H414.596C414.659 596.916 414.721 596.931 414.78 596.959C414.838 596.987 414.891 597.028 414.936 597.081C414.98 597.133 415.016 597.195 415.04 597.264C415.064 597.332 415.077 597.405 415.077 597.479V600.337H422.291V597.481C422.291 597.407 422.303 597.334 422.328 597.265C422.352 597.197 422.387 597.135 422.431 597.082C422.476 597.03 422.529 596.988 422.587 596.959C422.645 596.931 422.708 596.916 422.771 596.916H434.307C434.434 596.918 434.556 596.978 434.646 597.083C434.735 597.189 434.786 597.332 434.788 597.481V600.337H441.994V597.481C441.994 597.407 442.006 597.334 442.03 597.265C442.054 597.197 442.089 597.135 442.134 597.082C442.178 597.03 442.231 596.988 442.289 596.959C442.347 596.931 442.41 596.916 442.473 596.916H454.009C454.072 596.916 454.135 596.931 454.193 596.959C454.251 596.987 454.304 597.029 454.349 597.081C454.393 597.133 454.429 597.195 454.453 597.264C454.477 597.332 454.49 597.405 454.49 597.479V600.337H461.696V597.481C461.696 597.407 461.708 597.334 461.732 597.265C461.756 597.197 461.791 597.135 461.836 597.082C461.88 597.03 461.933 596.988 461.992 596.96C462.05 596.931 462.112 596.916 462.175 596.916H473.711C473.774 596.916 473.837 596.931 473.895 596.959C473.953 596.987 474.006 597.029 474.051 597.081C474.096 597.133 474.131 597.195 474.155 597.264C474.18 597.332 474.192 597.405 474.192 597.479V600.337H481.407V597.481C481.407 597.407 481.419 597.334 481.443 597.265C481.467 597.197 481.502 597.135 481.547 597.082C481.591 597.03 481.644 596.988 481.702 596.96C481.761 596.931 481.823 596.916 481.886 596.916H493.422C493.549 596.918 493.669 596.979 493.758 597.084C493.846 597.19 493.895 597.333 493.895 597.481V600.337H501.109V597.481C501.109 597.407 501.121 597.334 501.145 597.265C501.169 597.197 501.205 597.135 501.249 597.082C501.294 597.03 501.347 596.988 501.405 596.96C501.463 596.931 501.525 596.916 501.588 596.916H513.125C513.188 596.916 513.25 596.931 513.308 596.959C513.367 596.987 513.42 597.029 513.464 597.081C513.509 597.133 513.544 597.195 513.569 597.264C513.593 597.332 513.605 597.405 513.605 597.479V600.337H520.811V597.481C520.811 597.407 520.824 597.334 520.848 597.265C520.872 597.197 520.907 597.135 520.951 597.082C520.996 597.03 521.049 596.988 521.107 596.96C521.165 596.931 521.228 596.916 521.291 596.916H532.827C532.89 596.916 532.952 596.931 533.011 596.959C533.069 596.987 533.122 597.029 533.167 597.081C533.211 597.133 533.247 597.195 533.271 597.264C533.295 597.332 533.308 597.405 533.308 597.479V600.337H566.949C570.008 600.336 572.941 601.762 575.104 604.302C577.267 606.841 578.483 610.287 578.484 613.879L578.484 613.886Z" fill="#C7D3D4"/>
<path d="M547.601 355.967H196.289C195.02 355.967 193.762 356.26 192.589 356.831C191.416 357.402 190.35 358.239 189.452 359.294C188.554 360.348 187.842 361.601 187.356 362.979C186.87 364.357 186.62 365.834 186.62 367.326V597.275C186.62 600.288 187.638 603.177 189.452 605.307C191.265 607.438 193.725 608.634 196.289 608.634H547.601C550.166 608.634 552.625 607.438 554.439 605.307C556.252 603.177 557.271 600.288 557.271 597.275V367.326C557.271 364.313 556.252 361.424 554.439 359.294C552.625 357.163 550.166 355.967 547.601 355.967Z" fill="#C7D3D4"/>
<path d="M372.227 461.471C384.085 461.471 393.698 450.178 393.698 436.247C393.698 422.317 384.085 411.024 372.227 411.024C360.368 411.024 350.755 422.317 350.755 436.247C350.755 450.178 360.368 461.471 372.227 461.471Z" fill="white"/>
<path d="M387.686 227.012C427.531 227.012 459.831 190.423 459.831 145.287C459.831 100.152 427.531 63.5633 387.686 63.5633C347.842 63.5633 315.542 100.152 315.542 145.287C315.542 190.423 347.842 227.012 387.686 227.012Z" fill="#FFB8B8"/>
<path d="M321.247 145.288C321.247 145.288 327.111 136.755 325.748 108.252C324.384 79.7495 376.774 95.8704 420.551 93.1514C464.328 90.4323 455.061 140.738 455.061 140.738C455.061 140.738 458.22 137.747 464.981 113.468C471.743 89.1895 456.39 64.9947 456.39 64.9947C451.869 39.4821 427.5 47.6589 427.5 47.6589C439.236 51.4438 436.982 59.5368 436.982 59.5368C427.048 45.1077 402.68 53.2845 402.68 53.2845C370.179 36.3879 337.24 58.6386 337.24 58.6386C297.978 66.0208 321.004 91.8886 321.004 91.8886C281.519 108.42 321.247 145.288 321.247 145.288Z" fill="#C7D3D4"/>
<path d="M83.3964 497.956C81.0966 479.83 80.489 461.465 81.5843 443.185L83.3964 412.932C73.4113 436.177 75.6679 466.772 83.3964 497.956V497.956Z" fill="#CACACA"/>
<path d="M91.1825 503.017C90.0752 492.2 89.7835 481.291 90.3106 470.415L91.1825 452.407C86.3783 466.244 87.464 484.455 91.1825 503.017Z" fill="#CACACA"/>
<path d="M125.791 525.287V535.409C125.788 536.213 125.513 536.983 125.027 537.552C124.541 538.12 123.883 538.442 123.196 538.446H118.87C118.757 538.445 118.644 538.471 118.539 538.522C118.434 538.572 118.338 538.647 118.258 538.741C118.177 538.835 118.114 538.947 118.07 539.07C118.027 539.193 118.005 539.325 118.005 539.458V622.457C118.002 623.262 117.727 624.031 117.241 624.6C116.755 625.169 116.097 625.49 115.41 625.494H62.6374C61.9492 625.493 61.2894 625.173 60.8028 624.604C60.3162 624.035 60.0425 623.263 60.042 622.457V539.458C60.0413 539.19 59.95 538.933 59.7879 538.743C59.6258 538.553 59.4061 538.447 59.1769 538.446H53.9861C53.2979 538.445 52.6381 538.125 52.1515 537.556C51.6649 536.986 51.3913 536.214 51.3907 535.409V525.287C51.3903 524.888 51.4571 524.493 51.5874 524.124C51.7177 523.756 51.9088 523.421 52.1499 523.139C52.391 522.857 52.6773 522.633 52.9924 522.481C53.3075 522.328 53.6452 522.25 53.9861 522.251H123.196C123.884 522.253 124.543 522.574 125.029 523.143C125.515 523.712 125.789 524.483 125.791 525.287Z" fill="white"/>
<path d="M118.083 540.571H60.1197V543.608H118.083V540.571Z" fill="#E6E6E6"/>
<path d="M118.429 624.495C99.0332 633.886 79.4258 633.99 59.6006 624.495V603.102C78.6862 595.603 99.3434 595.603 118.429 603.102V624.495Z" fill="#C7D3D4"/>
<path d="M761 631.987H0V635.866H761V631.987Z" fill="white"/>
</svg>
