<svg width="761" height="636" viewBox="0 0 761 636" fill="none" xmlns="http://www.w3.org/2000/svg">
<g clip-path="url(#clip0)">
<path d="M437.609 311.599L384.489 314.303C384.489 314.303 388.923 345.414 360.185 348.373C331.447 351.331 305.322 342.455 294.872 364.645C284.421 386.836 288.926 465.849 288.926 465.849C288.926 465.849 308.52 545.734 324.195 557.569C339.87 569.404 477.028 553.131 477.028 553.131L534.43 471.048L532.486 407.747C531.47 374.69 505.731 335.126 477.028 341.244C476.464 341.364 464.679 341.105 464.108 341.244C464.108 341.244 472.398 351.04 455.097 341.244C444.517 335.253 437.609 311.599 437.609 311.599Z" fill="#603F83"/>
<path d="M277.113 520.878C280.72 520.878 283.644 517.567 283.644 513.482C283.644 509.397 280.72 506.085 277.113 506.085C273.505 506.085 270.581 509.397 270.581 513.482C270.581 517.567 273.505 520.878 277.113 520.878Z" fill="#6C63FF"/>
<path d="M407.739 528.275C411.346 528.275 414.271 524.963 414.271 520.878C414.271 516.793 411.346 513.482 407.739 513.482C404.132 513.482 401.208 516.793 401.208 520.878C401.208 524.963 404.132 528.275 407.739 528.275Z" fill="#6C63FF"/>
<path d="M571.266 619.172V624.127C571.268 625.487 571.046 626.835 570.61 628.103C570.416 628.668 570.183 629.214 569.911 629.736C569.052 631.369 567.833 632.721 566.373 633.66C564.913 634.599 563.263 635.092 561.585 635.091H239.681C238.003 635.092 236.353 634.599 234.893 633.66C233.433 632.721 232.214 631.369 231.355 629.736C231.083 629.214 230.85 628.668 230.656 628.103C230.22 626.835 229.998 625.487 230 624.127V619.172C230 617.732 230.25 616.307 230.736 614.977C231.222 613.647 231.934 612.438 232.833 611.42C233.732 610.402 234.798 609.594 235.972 609.043C237.147 608.492 238.405 608.208 239.676 608.208H258.236V605.897C258.236 605.837 258.247 605.778 258.267 605.722C258.287 605.667 258.317 605.617 258.354 605.574C258.391 605.532 258.436 605.498 258.485 605.475C258.533 605.452 258.586 605.44 258.639 605.44H268.321C268.428 605.44 268.531 605.488 268.607 605.573C268.682 605.659 268.725 605.775 268.725 605.896V608.208H274.773V605.897C274.773 605.837 274.783 605.778 274.804 605.722C274.824 605.667 274.853 605.617 274.891 605.574C274.928 605.532 274.972 605.498 275.021 605.475C275.07 605.452 275.123 605.44 275.175 605.44H284.858C284.965 605.44 285.067 605.488 285.143 605.573C285.219 605.659 285.262 605.775 285.262 605.896V608.208H291.317V605.897C291.317 605.837 291.327 605.778 291.347 605.722C291.368 605.667 291.397 605.617 291.435 605.574C291.472 605.532 291.516 605.498 291.565 605.475C291.614 605.452 291.666 605.44 291.719 605.44H301.402C301.509 605.44 301.611 605.488 301.687 605.573C301.763 605.659 301.805 605.775 301.806 605.896V608.208H307.854V605.897C307.854 605.837 307.864 605.778 307.884 605.722C307.904 605.667 307.934 605.617 307.971 605.574C308.009 605.532 308.053 605.498 308.102 605.475C308.151 605.452 308.203 605.44 308.256 605.44H317.939C318.046 605.44 318.148 605.488 318.224 605.573C318.3 605.659 318.342 605.775 318.342 605.896V608.208H324.39V605.897C324.39 605.837 324.401 605.778 324.421 605.722C324.441 605.667 324.471 605.617 324.508 605.574C324.545 605.532 324.59 605.498 324.639 605.475C324.687 605.452 324.74 605.44 324.793 605.44H334.475C334.582 605.44 334.685 605.488 334.761 605.573C334.836 605.659 334.879 605.775 334.879 605.896V608.208H340.934V605.897C340.934 605.837 340.945 605.778 340.965 605.722C340.985 605.667 341.015 605.617 341.052 605.574C341.089 605.532 341.134 605.498 341.182 605.475C341.231 605.452 341.284 605.44 341.337 605.44H351.019C351.126 605.44 351.229 605.488 351.304 605.573C351.38 605.659 351.423 605.775 351.423 605.896V608.208H357.471V605.897C357.471 605.837 357.481 605.778 357.501 605.722C357.522 605.667 357.551 605.617 357.589 605.574C357.626 605.532 357.67 605.498 357.719 605.475C357.768 605.452 357.82 605.44 357.873 605.44H433.71C433.763 605.44 433.815 605.452 433.864 605.475C433.913 605.497 433.958 605.531 433.995 605.573C434.033 605.616 434.062 605.666 434.083 605.721C434.103 605.776 434.114 605.836 434.114 605.896V608.208H440.169V605.897C440.169 605.837 440.179 605.778 440.199 605.723C440.22 605.667 440.249 605.617 440.287 605.574C440.324 605.532 440.368 605.498 440.417 605.475C440.466 605.452 440.518 605.44 440.571 605.44H450.254C450.361 605.441 450.463 605.49 450.538 605.575C450.614 605.661 450.657 605.776 450.658 605.897V608.208H456.706V605.897C456.706 605.837 456.716 605.778 456.736 605.723C456.756 605.667 456.786 605.617 456.823 605.574C456.861 605.532 456.905 605.498 456.954 605.475C457.003 605.452 457.055 605.44 457.108 605.44H466.791C466.844 605.44 466.896 605.452 466.945 605.475C466.994 605.497 467.038 605.531 467.076 605.573C467.113 605.616 467.143 605.666 467.163 605.721C467.184 605.776 467.194 605.836 467.194 605.896V608.208H473.242V605.897C473.242 605.837 473.253 605.778 473.273 605.723C473.293 605.667 473.323 605.617 473.36 605.574C473.397 605.532 473.442 605.498 473.491 605.475C473.539 605.452 473.592 605.44 473.645 605.44H483.327C483.38 605.44 483.433 605.452 483.482 605.475C483.531 605.497 483.575 605.531 483.612 605.573C483.65 605.616 483.68 605.666 483.7 605.721C483.72 605.776 483.731 605.836 483.731 605.896V608.208H489.786V605.897C489.786 605.837 489.797 605.778 489.817 605.723C489.837 605.667 489.866 605.617 489.904 605.574C489.941 605.532 489.986 605.498 490.034 605.475C490.083 605.452 490.136 605.44 490.189 605.44H499.871C499.977 605.442 500.078 605.491 500.153 605.576C500.227 605.662 500.268 605.777 500.268 605.897V608.208H506.323V605.897C506.323 605.837 506.333 605.778 506.353 605.723C506.374 605.667 506.403 605.617 506.441 605.574C506.478 605.532 506.522 605.498 506.571 605.475C506.62 605.452 506.672 605.44 506.725 605.44H516.408C516.461 605.44 516.513 605.452 516.562 605.475C516.611 605.497 516.656 605.531 516.693 605.573C516.731 605.616 516.76 605.666 516.781 605.721C516.801 605.777 516.811 605.836 516.812 605.896V608.208H522.86V605.897C522.86 605.837 522.87 605.778 522.89 605.723C522.91 605.667 522.94 605.617 522.977 605.574C523.015 605.532 523.059 605.498 523.108 605.475C523.157 605.452 523.209 605.44 523.262 605.44H532.945C532.998 605.44 533.05 605.452 533.099 605.475C533.148 605.497 533.192 605.531 533.23 605.573C533.267 605.616 533.297 605.666 533.317 605.721C533.338 605.777 533.348 605.836 533.348 605.896V608.208H561.585C564.152 608.207 566.614 609.361 568.429 611.416C570.245 613.471 571.265 616.259 571.266 619.166L571.266 619.172Z" fill="#C7D3D4"/>
<path d="M545.345 410.476H250.479C249.413 410.476 248.358 410.714 247.373 411.176C246.389 411.638 245.494 412.315 244.74 413.168C243.987 414.022 243.389 415.035 242.981 416.15C242.573 417.265 242.363 418.46 242.363 419.667V605.731C242.363 608.168 243.218 610.506 244.74 612.23C246.262 613.954 248.327 614.922 250.479 614.922H545.345C547.498 614.922 549.562 613.953 551.084 612.23C552.606 610.506 553.461 608.168 553.461 605.731V419.667C553.461 417.23 552.606 414.892 551.084 413.168C549.562 411.444 547.498 410.476 545.345 410.476Z" fill="#C7D3D4"/>
<path d="M398.148 495.845C408.102 495.845 416.17 486.707 416.17 475.435C416.17 464.163 408.102 455.026 398.148 455.026C388.195 455.026 380.127 464.163 380.127 475.435C380.127 486.707 388.195 495.845 398.148 495.845Z" fill="white"/>
<path d="M411.124 306.133C444.566 306.133 471.677 276.526 471.677 240.006C471.677 203.485 444.566 173.879 411.124 173.879C377.682 173.879 350.571 203.485 350.571 240.006C350.571 276.526 377.682 306.133 411.124 306.133Z" fill="#FFB8B8"/>
<path d="M355.36 240.006C355.36 240.006 360.282 233.102 359.137 210.039C357.993 186.976 401.965 200.02 438.708 197.82C475.452 195.62 467.674 236.324 467.674 236.324C467.674 236.324 470.325 233.904 476 214.259C481.675 194.614 468.789 175.037 468.789 175.037C464.994 154.393 444.541 161.01 444.541 161.01C454.391 164.072 452.499 170.62 452.499 170.62C444.161 158.945 423.708 165.561 423.708 165.561C396.43 151.89 368.783 169.894 368.783 169.894C335.829 175.867 355.155 196.798 355.155 196.798C322.015 210.174 355.36 240.006 355.36 240.006Z" fill="#C7D3D4"/>
</g>
<path d="M134 555C132.276 544.127 131.82 533.112 132.641 522.147L134 504C126.514 517.943 128.206 536.295 134 555V555Z" fill="#CACACA"/>
<path d="M140 558C139.31 551.588 139.128 545.122 139.457 538.675L140 528C137.006 536.202 137.682 546.997 140 558Z" fill="#CACACA"/>
<path d="M168 571.824V577.902C167.997 578.385 167.779 578.847 167.394 579.189C167.009 579.53 166.487 579.723 165.942 579.725H162.512C162.421 579.725 162.332 579.741 162.249 579.771C162.165 579.802 162.09 579.846 162.026 579.903C161.962 579.959 161.912 580.027 161.877 580.1C161.843 580.174 161.825 580.253 161.826 580.333V630.176C161.823 630.659 161.605 631.122 161.22 631.463C160.834 631.805 160.312 631.998 159.767 632H117.919C117.373 632 116.85 631.807 116.464 631.465C116.078 631.124 115.861 630.66 115.86 630.176V580.333C115.86 580.172 115.787 580.018 115.659 579.904C115.53 579.79 115.356 579.726 115.174 579.725H111.058C110.512 579.725 109.989 579.533 109.603 579.191C109.217 578.849 109 578.385 109 577.902V571.824C109 571.584 109.053 571.347 109.156 571.125C109.259 570.904 109.411 570.703 109.602 570.533C109.793 570.364 110.02 570.23 110.27 570.138C110.52 570.047 110.788 570 111.058 570H165.942C166.487 570.001 167.01 570.194 167.395 570.536C167.781 570.877 167.998 571.34 168 571.824Z" fill="white"/>
<path d="M162 581H116V583H162V581Z" fill="#E6E6E6"/>
<path d="M161 611.639C145.834 617.422 130.502 617.486 115 611.639V598.464C129.924 593.845 146.076 593.845 161 598.464V611.639Z" fill="#C7D3D4"/>
<path d="M761 631.987H0V635.866H761V631.987Z" fill="white"/>
<defs>
<clipPath id="clip0">
<rect width="700" height="513" fill="white" transform="translate(60 122)"/>
</clipPath>
</defs>
</svg>
