<svg width="601" height="329" viewBox="0 0 601 329" fill="none" xmlns="http://www.w3.org/2000/svg">
<g filter="url(#filter0_d)">
<path fill-rule="evenodd" clip-rule="evenodd" d="M92.6563 270.986C94.2188 275.898 95 279.574 95 282.013C95 284.183 94.7757 287.08 94.3271 290.706C94.0234 293.161 91.5589 295 88.6406 295C78.8942 295 55.8933 295 19.6382 295C16.9163 295 14.4992 293.398 14.1895 291.11C13.4463 285.62 14.8893 282.613 18.5181 282.09C22.4362 281.525 25.765 281.01 28.5045 280.542C29.1696 280.428 29.8037 280.214 30.3801 279.911L66.1193 261.143C66.8237 260.773 67.6495 261.146 67.9635 261.976C67.9689 261.99 67.9741 262.004 67.9791 262.019L69.7264 267.012C70.1175 268.129 70.9589 269.105 72.1485 269.692C75.41 271.303 78.1222 272.109 80.285 272.109C82.3588 272.109 85.2227 271.121 88.8768 269.149C90.2791 268.391 91.937 269.117 92.5798 270.769C92.6076 270.84 92.6331 270.912 92.6563 270.986Z" fill="white"/>
<path fill-rule="evenodd" clip-rule="evenodd" d="M61.0797 82.351C56.6629 85.9978 53.1978 88.3418 50.6858 89.3823C48.451 90.3079 45.3754 91.321 41.4563 92.4226C38.803 93.1683 35.8951 91.5063 34.695 88.609C30.6869 78.9326 21.2281 56.0971 6.31867 20.1025C5.19933 17.4002 5.85523 14.317 8.08487 13.0332C13.4335 9.95335 17.1237 10.1032 19.1542 13.483C21.3478 17.1317 23.2474 20.2168 24.8554 22.7372C25.2462 23.3489 25.7275 23.8871 26.2771 24.3299L60.3042 51.8055C60.9746 52.3472 60.9297 53.3263 60.2043 53.992C60.1926 54.0031 60.1796 54.0145 60.1666 54.0258L55.7426 57.8906C54.7527 58.7556 54.0941 60.007 53.9783 61.4386C53.6609 65.3638 53.9456 68.4006 54.8351 70.5478C55.6879 72.6067 57.8827 75.0287 61.4172 77.815C62.7741 78.884 62.7085 80.8396 61.2713 82.1826C61.2096 82.2404 61.1457 82.2965 61.0797 82.351Z" fill="white"/>
<path d="M596.387 308.506C531.632 296.981 460.819 298.897 386.54 308.506C420.395 279.925 449.615 251.343 415.759 222.762C481.798 236.386 491.048 235.007 564.511 222.762C547.472 251.343 579.348 279.925 596.387 308.506Z" fill="#603F83"/>
<path opacity="0.2" d="M596.387 308.506C531.632 296.981 460.819 298.897 386.54 308.506C420.395 279.925 449.615 251.343 415.759 222.762C481.798 236.386 491.048 235.007 564.511 222.762C547.472 251.343 579.348 279.925 596.387 308.506Z" fill="black"/>
<path d="M582.257 296.443C527.25 287.243 467.098 288.772 404 296.443C432.759 273.628 457.58 250.814 428.821 228C484.918 238.875 492.776 237.774 555.18 228C540.706 250.814 567.783 273.628 582.257 296.443Z" fill="#603F83"/>
<path d="M426.591 216.249L446.899 219.634L457.053 248.967L427.72 267.019L393.873 216.249H425.463H426.591Z" fill="#FFB8B8"/>
<path d="M484.13 261.378C510.3 261.378 531.515 240.163 531.515 213.993C531.515 187.823 510.3 166.608 484.13 166.608C457.96 166.608 436.745 187.823 436.745 213.993C436.745 240.163 457.96 261.378 484.13 261.378Z" fill="#FFB8B8"/>
<path d="M222.386 41.377C222.386 41.377 107.308 53.7873 87.0006 51.5309C66.6929 49.2744 57.6672 47.018 57.6672 47.018C57.6672 47.018 44.1287 65.0693 50.898 72.9668C54.6891 77.5176 59.2766 81.3406 64.4365 84.2489C64.4365 84.2489 76.8468 80.8643 85.8725 84.2489C94.8982 87.6335 186.283 102.3 202.078 88.7617C217.873 75.2232 222.386 41.377 222.386 41.377Z" fill="#35353F"/>
<path d="M215.616 218.506C215.616 218.506 200.95 281.685 225.77 295.224C250.591 308.762 424.335 311.019 437.873 286.198C451.412 261.378 444.643 261.378 444.643 261.378L408.54 220.762L437.873 218.506C437.873 218.506 437.873 209.48 427.72 208.352C417.566 207.224 385.077 200.454 358 208.352C330.923 216.249 316.027 188.044 316.027 188.044L215.616 218.506Z" fill="#575A89"/>
<path d="M230.283 292.967C230.283 292.967 149.813 273.269 136.274 178.5L141.155 167.736C141.155 167.736 129.5 196.506 120.847 199.326C120.847 210 92.6416 261.378 93.7698 267.019C94.898 272.66 93.7698 274.916 93.7698 274.916L61.0518 271.531V261.378C61.0518 261.378 78.539 208.916 79.6672 196.506C80.7954 184.095 123.103 97.7873 123.103 97.7873C123.103 97.7873 138.898 65.0693 165.975 97.7873C193.052 130.505 195.309 153.07 195.309 153.07L230.283 220.762L230.283 292.967Z" fill="#35353F"/>
<path d="M196.437 21.069L177.257 125.993L309.258 110.198L332.95 15.428L196.437 21.069Z" fill="#3F3D56"/>
<path d="M200.386 25.018L184.591 118.659L304.745 104.557L327.873 19.377L200.386 25.018Z" fill="white"/>
<path d="M181.77 127.121L177.257 125.993L175.001 130.505L211.104 230.916L214.499 229.618L215.616 223.019L181.77 127.121Z" fill="#B3B3B3"/>
<path d="M177.257 124.864L213.36 229.788L349.873 209.48L309.258 110.198L177.257 124.864Z" fill="#D0CDE1"/>
<path d="M195.309 121.48V127.121L295.719 115.839L294.591 110.198L195.309 121.48Z" fill="#3F3D56"/>
<path d="M197.565 132.762L213.36 176.762L316.027 164.352L297.976 122.608L197.565 132.762Z" fill="#3F3D56"/>
<path d="M326.181 194.813L322.796 185.788C322.796 185.788 296.847 140.659 283.309 149.685C269.77 158.711 311.514 202.711 311.514 202.711H325.053L326.181 194.813Z" fill="#FFB8B8"/>
<path d="M240.437 201.583L237.052 188.044C237.052 188.044 228.027 146.3 243.822 148.557C259.617 150.813 264.129 190.3 264.129 190.3L263.001 199.326L240.437 201.583Z" fill="#FFB8B8"/>
<path d="M267.514 195.942C267.514 195.942 238.181 191.429 237.052 198.198C235.924 204.967 230.283 306.506 258.488 309.891C286.694 313.275 426.591 327.942 411.925 292.967C397.258 257.993 374.694 262.506 374.694 262.506L278.796 272.66L267.514 195.942Z" fill="#575A89"/>
<path d="M356.078 208.916L326.181 188.044L306.437 203.275L331.258 230.352L356.078 208.916Z" fill="#575A89"/>
<path opacity="0.2" d="M275.976 229.224L280.488 272.096L358.335 267.583L290.642 266.455L275.976 229.224Z" fill="black"/>
<path d="M217.309 57.736L287.258 55.301L294.027 29.531L221.822 31.71L217.309 57.736Z" fill="#603F83"/>
<path d="M199.258 72.403L305.309 69.018L306.437 64.505L200.386 68.239L199.258 72.403Z" fill="#E6E6E6"/>
<path d="M197.001 83.685L303.053 80.3L304.181 75.787L198.129 79.521L197.001 83.685Z" fill="#E6E6E6"/>
<path d="M195.873 92.71L301.924 89.326L303.053 84.813L197.001 88.546L195.873 92.71Z" fill="#E6E6E6"/>
<path d="M487.638 226.618C485.12 222.322 487.932 217.034 491.216 213.72C494.5 210.406 498.601 207.186 499.033 202.311C499.625 195.651 493.102 190.295 491.392 183.716C489.461 176.287 494.325 168.795 500.7 165.602C507.074 162.409 514.572 162.482 521.788 162.615L514.725 166.829C517.204 165.598 519.978 165.076 522.781 165.314C525.584 165.551 528.322 166.54 530.733 168.185L519.218 171.72C520.847 171.325 522.552 171.278 524.235 171.581C525.918 171.883 527.547 172.53 529.027 173.485C530.507 174.439 531.809 175.681 532.859 177.141C533.91 178.601 534.687 180.249 535.146 181.991L528.521 184.64C532.899 192.287 537.308 200.004 540.137 208.353C542.965 216.702 544.13 225.841 541.868 234.085C538.484 246.416 527.824 255.018 516.172 258.753C504.519 262.488 491.868 262.075 479.482 261.298C476.365 261.102 472.704 260.55 471.065 257.667C469.591 255.076 470.615 251.675 472.659 249.782C474.85 248.056 477.446 246.957 480.213 246.585C484.309 245.713 488.574 245.003 492.033 242.645C495.492 240.287 497.945 235.739 496.624 231.436C495.303 227.133 489.132 224.826 486.625 228.261L487.638 226.618Z" fill="white"/>
</g>
<defs>
<filter id="filter0_d" x="0" y="0" width="600.387" height="337" filterUnits="userSpaceOnUse" color-interpolation-filters="sRGB">
<feFlood flood-opacity="0" result="BackgroundImageFix"/>
<feColorMatrix in="SourceAlpha" type="matrix" values="0 0 0 0 0 0 0 0 0 0 0 0 0 0 0 0 0 0 127 0"/>
<feOffset dy="4"/>
<feGaussianBlur stdDeviation="2"/>
<feColorMatrix type="matrix" values="0 0 0 0 0 0 0 0 0 0 0 0 0 0 0 0 0 0 0.25 0"/>
<feBlend mode="normal" in2="BackgroundImageFix" result="effect1_dropShadow"/>
<feBlend mode="normal" in="SourceGraphic" in2="effect1_dropShadow" result="shape"/>
</filter>
</defs>
</svg>
