<svg width="568" height="568" viewBox="0 0 568 568" fill="none" xmlns="http://www.w3.org/2000/svg">
<path d="M465.76 45.4399H102.24C70.8864 45.4399 45.44 70.8863 45.44 102.24V465.76C45.44 497.114 70.8864 522.56 102.24 522.56H465.76C497.114 522.56 522.56 497.114 522.56 465.76V102.24C522.56 70.8863 497.114 45.4399 465.76 45.4399ZM193.12 227.2V443.04H124.96V227.2H193.12ZM124.96 164.379C124.96 148.475 138.592 136.32 159.04 136.32C179.488 136.32 192.325 148.475 193.12 164.379C193.12 180.283 180.397 193.12 159.04 193.12C138.592 193.12 124.96 180.283 124.96 164.379ZM443.04 443.04H374.88C374.88 443.04 374.88 337.846 374.88 329.44C374.88 306.72 363.52 284 335.12 283.546H334.211C306.72 283.546 295.36 306.947 295.36 329.44C295.36 339.778 295.36 443.04 295.36 443.04H227.2V227.2H295.36V256.282C295.36 256.282 317.285 227.2 361.362 227.2C406.461 227.2 443.04 258.213 443.04 321.034V443.04Z" fill="#303F9F"/>
</svg>
