<svg width="666" height="666" viewBox="0 0 666 666" fill="none" xmlns="http://www.w3.org/2000/svg">
<path fill-rule="evenodd" clip-rule="evenodd" d="M458.073 222.756C466.424 246.914 472.439 271.577 474.416 297.14C476.872 328.853 475.748 360.342 469.062 391.535C468.88 392.394 468.495 393.2 468.208 394.033C466.112 394.038 463.973 393.778 461.923 394.095C444.602 396.816 427.296 399.636 409.991 402.441C392.102 405.339 374.188 408.123 356.331 411.219C350.004 412.311 342.173 411.005 339.618 419.757C339.546 419.996 338.817 420.038 338.396 420.173L339.259 367.877C338.963 325.815 338.671 283.752 338.38 241.69L346.715 240.26C360.348 238.027 373.98 235.764 387.622 233.594C403.903 231.008 420.199 228.495 436.49 225.972C443.676 224.853 450.872 223.828 458.073 222.756V222.756Z" fill="#303F9F"/>
<path fill-rule="evenodd" clip-rule="evenodd" d="M321.184 572.625C312.391 565.065 303.29 557.838 294.861 549.887C249.506 507.107 216.33 456.756 199.993 396.052C195.492 379.344 192.49 362.367 191.527 345.103C190.851 333.021 189.872 320.83 190.726 308.811C193 276.843 197.62 245.182 206.996 214.39L207.511 213.672C208.422 214.884 209.733 215.956 210.196 217.324C219.348 244.276 228.433 271.249 237.471 298.238C265.869 383.049 294.232 467.881 322.677 552.671C323.234 554.325 324.675 555.683 325.711 557.177L321.184 572.625V572.625Z" fill="#7986CD"/>
<path fill-rule="evenodd" clip-rule="evenodd" d="M458.073 222.756C450.872 223.828 443.67 224.853 436.485 225.961C420.194 228.485 403.898 230.998 387.617 233.584C373.975 235.753 360.342 238.017 346.71 240.249L338.375 241.68L338.312 236.243C338.037 231.773 337.563 227.309 337.511 222.839C337.152 194.337 336.928 165.834 336.575 137.331C336.356 119.49 336.028 101.653 335.664 83.817C335.44 72.7343 335.201 61.6465 334.701 50.5794C334.431 44.6323 333.473 38.7163 333.083 32.7692C332.865 29.3507 333.167 25.9062 333.234 22.4722C337.485 30.7087 341.642 39.0077 346.013 47.1818C352.918 60.1064 363.917 69.6281 373.819 80.0187C412.962 121.082 440.752 168.826 458.073 222.756V222.756Z" fill="#303F9F"/>
<path fill-rule="evenodd" clip-rule="evenodd" d="M338.39 420.168C338.812 420.033 339.546 419.991 339.613 419.752C342.168 411 349.999 412.306 356.326 411.213C374.183 408.123 392.097 405.334 409.985 402.436C427.291 399.631 444.597 396.811 461.918 394.09C463.968 393.767 466.106 394.033 468.203 394.027C464.967 405.578 462.417 417.379 458.312 428.613C453.65 441.355 448.01 453.791 442.021 465.981C433.072 484.208 421.921 501.207 408.966 516.78C398.981 528.788 387.851 539.887 376.696 550.85C370.53 556.911 363.261 561.849 356.497 567.297L354.744 566.1L348.427 560.699L341.892 546.375C337.391 529.605 335.029 512.534 334.639 495.187L334.759 492.268L335.648 479.645C335.945 475.337 336.34 471.034 336.523 466.715C337.194 451.199 337.776 435.684 338.39 420.168V420.168Z" fill="#303F9F"/>
<path fill-rule="evenodd" clip-rule="evenodd" d="M338.39 420.168C337.776 435.684 337.194 451.199 336.533 466.72C336.351 471.039 335.955 475.342 335.659 479.65L331.678 481.154C322.838 455.128 313.993 429.378 305.34 403.56C291.032 360.847 276.895 318.067 262.607 275.344C251.072 240.858 239.443 206.408 227.746 171.974C227.2 170.361 225.628 169.102 224.536 167.676L250.01 120.837C250.884 122.357 252.039 123.777 252.591 125.411C264.376 160.287 276.14 195.169 287.806 230.087C302.978 275.511 318.057 320.97 333.218 366.399C333.822 368.215 334.821 369.89 335.773 371.925L339.259 367.866C338.968 385.302 338.677 402.732 338.39 420.168V420.168Z" fill="#7986CD"/>
<path fill-rule="evenodd" clip-rule="evenodd" d="M224.541 167.681C225.633 169.107 227.2 170.366 227.751 171.979C239.448 206.413 251.077 240.863 262.612 275.35C276.9 318.072 291.037 360.852 305.345 403.565C313.993 429.378 322.838 455.133 331.684 481.159L335.664 479.655L334.774 492.278L333.968 495.187C332.584 509.006 331.418 522.857 329.732 536.645C328.884 543.555 327.084 550.34 325.716 557.182C324.685 555.689 323.239 554.331 322.682 552.676C294.237 467.881 265.874 383.054 237.476 298.243C228.438 271.255 219.353 244.282 210.201 217.329C209.738 215.961 208.432 214.889 207.516 213.677C213.188 198.343 218.864 183.01 224.541 167.681Z" fill="#7986CD"/>
<path fill-rule="evenodd" clip-rule="evenodd" d="M339.254 367.871L335.768 371.93C334.816 369.895 333.817 368.215 333.213 366.404C318.057 320.976 302.973 275.516 287.8 230.093C276.135 195.175 264.371 160.293 252.586 125.416C252.039 123.782 250.884 122.357 250.005 120.843L281.51 79.3998C282.504 80.7266 283.919 81.9077 284.434 83.401C293.181 109.006 301.849 134.641 310.465 160.293C318.515 184.248 326.444 208.24 334.587 232.164C335.133 233.766 337.032 234.9 338.302 236.253L338.364 241.69C338.666 283.742 338.963 325.809 339.254 367.871V367.871Z" fill="#7986CD"/>
<path fill-rule="evenodd" clip-rule="evenodd" d="M338.312 236.242C337.043 234.89 335.144 233.755 334.597 232.153C326.454 208.229 318.525 184.237 310.476 160.282C301.859 134.631 293.191 109 284.444 83.3903C283.929 81.897 282.514 80.7159 281.52 79.3891C291.765 69.3575 301.693 58.9668 312.349 49.3983C321.824 40.8964 329.441 31.7805 329.79 18.346C329.805 17.7893 330.097 17.2326 330.544 15.6716L333.244 22.4669C333.177 25.9062 332.87 29.3454 333.094 32.7639C333.484 38.7111 334.441 44.627 334.712 50.5742C335.211 61.6412 335.451 72.7291 335.674 83.8118C336.033 101.648 336.361 119.484 336.585 137.326C336.934 165.829 337.162 194.331 337.522 222.834C337.563 227.314 338.031 231.773 338.312 236.242V236.242Z" fill="#7986CD"/>
<path fill-rule="evenodd" clip-rule="evenodd" d="M325.705 557.177C327.074 550.335 328.874 543.544 329.722 536.64C331.413 522.857 332.573 509.001 333.957 495.181L334.301 495.129L334.644 495.187C335.034 512.534 337.397 529.605 341.897 546.375C340.982 547.582 339.686 548.659 339.202 550.022C335.419 560.689 331.855 571.438 328.052 582.105C327.532 583.562 326.085 584.696 325.065 585.976L321.178 572.625L325.705 557.177V557.177Z" fill="#A9AA88"/>
<path fill-rule="evenodd" clip-rule="evenodd" d="M325.07 585.981C326.09 584.701 327.542 583.567 328.057 582.11C331.861 571.444 335.43 560.699 339.207 550.027C339.691 548.664 340.982 547.587 341.903 546.38L348.433 560.71C347.142 562.541 345.363 564.19 344.645 566.23L332.136 602.959C331.621 604.431 329.863 605.472 328.687 606.716L325.07 585.981V585.981Z" fill="#B6B598"/>
<path fill-rule="evenodd" clip-rule="evenodd" d="M328.687 606.71C329.868 605.472 331.621 604.426 332.136 602.953L344.645 566.225C345.357 564.19 347.142 562.536 348.432 560.704L354.754 566.1C351.7 569.118 350.004 572.604 351.024 577.011L349.104 583.296C348.229 584.373 346.965 585.31 346.533 586.543C342.168 599.046 338 611.617 333.603 624.12C333.047 625.707 331.501 626.95 330.409 628.345C329.842 621.128 329.264 613.927 328.687 606.71V606.71Z" fill="#C2C1A7"/>
<path fill-rule="evenodd" clip-rule="evenodd" d="M330.414 628.345C331.501 626.945 333.047 625.702 333.609 624.12C338.005 611.622 342.173 599.051 346.538 586.543C346.97 585.315 348.229 584.373 349.109 583.296L346.46 612.147C345.753 612.964 344.728 613.677 344.39 614.629C341.398 623.027 338.578 631.488 335.576 639.885C334.956 641.618 333.77 643.148 332.844 644.766C332.022 643.689 330.549 642.648 330.482 641.524C330.216 637.148 330.398 632.741 330.414 628.345V628.345Z" fill="#CECDB7"/>
<path fill-rule="evenodd" clip-rule="evenodd" d="M332.839 644.766C333.765 643.143 334.951 641.613 335.57 639.886C338.578 631.493 341.393 623.033 344.384 614.63C344.723 613.677 345.753 612.97 346.455 612.148L346.518 631.087L340.18 647.342L332.839 644.766V644.766Z" fill="#DBDAC7"/>
<path fill-rule="evenodd" clip-rule="evenodd" d="M340.18 647.347L346.518 631.092L347.824 650.323L340.18 647.347V647.347Z" fill="#EBE9DC"/>
<path fill-rule="evenodd" clip-rule="evenodd" d="M351.024 577.016C350.004 572.609 351.695 569.118 354.754 566.105L356.508 567.302L351.024 577.016V577.016Z" fill="#CECDB7"/>
<path fill-rule="evenodd" clip-rule="evenodd" d="M334.644 495.192L334.301 495.135L333.957 495.187L334.764 492.278L334.644 495.192V495.192Z" fill="#4FAA41"/>
</svg>
