<svg width="249" height="444" viewBox="0 0 249 444" fill="none" xmlns="http://www.w3.org/2000/svg">
<g clip-path="url(#clip0)">
<path d="M59.4224 77.7246C62.2533 75.7097 65.3778 74.1428 68.6858 73.0791C89.6591 65.2753 111.635 60.4915 133.954 58.8712C153.362 57.495 174.396 59.1296 189.554 71.3267C191.912 73.0568 193.841 75.3046 195.194 77.8974C197.101 82.0126 196.523 86.7961 195.905 91.2895C195.767 93.0324 195.328 94.7382 194.607 96.3311C192.567 100.215 187.545 101.575 183.183 101.11C178.821 100.644 174.728 98.7983 170.425 97.9426C167.762 97.4785 165.07 97.2043 162.368 97.1221L135.383 95.6612C118.603 94.7528 101.602 93.8594 85.1421 97.246C80.0751 98.1568 75.1789 99.8439 70.6265 102.248C66.867 104.359 64.3354 107.387 60.847 103.489C54.7185 96.6396 51.3262 84.051 59.4224 77.7246Z" fill="#2F2E41"/>
<path d="M101.238 89.6577C101.238 89.6577 137.533 73.3874 151.3 92.1608C165.067 110.934 143.791 103.425 143.791 103.425L120.011 110.934L93.7283 105.928L101.238 89.6577Z" fill="#F2F2F2"/>
<path d="M103.115 77.7679C103.115 77.7679 108.121 101.548 104.367 107.805C100.612 114.063 125.643 122.824 125.643 122.824L149.423 112.812C149.423 112.812 143.165 74.0132 149.423 66.5038L103.115 77.7679Z" fill="#FFB8B8"/>
<path opacity="0.1" d="M103.115 77.7679C103.115 77.7679 108.121 101.548 104.367 107.805C100.612 114.063 125.643 122.824 125.643 122.824L149.423 112.812C149.423 112.812 143.165 74.0132 149.423 66.5038L103.115 77.7679Z" fill="black"/>
<path d="M79.6628 363.703C83.2436 370.568 85.5645 378.005 87.9334 385.377C87.9685 385.623 88.0552 385.859 88.1877 386.069C88.3202 386.279 88.4957 386.458 88.7025 386.596C88.9093 386.733 89.1428 386.826 89.3878 386.867C89.6328 386.908 89.8836 386.897 90.124 386.834L112.386 386.809C115.133 386.806 118.819 385.924 118.791 383.176C118.771 381.246 116.798 380.043 115.329 378.79C111.254 375.312 110.193 369.579 108.505 364.495C105.225 354.7 98.9025 346.209 90.4599 340.258C89.3185 339.365 88.0053 338.716 86.6022 338.351C85.1911 338.147 83.7534 338.225 82.3728 338.581C78.4649 339.369 63.8715 342.067 66.6283 347.751C67.8153 350.199 72.2143 352.746 74.0587 355.033C76.2081 357.731 78.0853 360.635 79.6628 363.703Z" fill="#FFB8B8"/>
<path d="M157.076 337.883C156.291 339.533 155.418 341.139 154.459 342.694C151.234 348.014 147.428 352.975 144.425 358.423C142.551 361.821 140.974 365.493 140.767 369.368C140.56 373.243 141.925 377.367 145.016 379.712C148.247 382.164 152.678 382.278 156.694 381.707C160.711 381.135 164.704 379.984 168.749 380.287C167.385 372.569 173.895 365.776 175.523 358.109C175.98 355.956 176.048 353.723 176.661 351.609C177.32 349.675 178.164 347.809 179.18 346.037C182.422 339.725 184.713 332.968 185.979 325.985C186.132 325.139 166.19 325 164.32 325.405C158.482 326.667 159.336 333.042 157.076 337.883Z" fill="#FFB8B8"/>
<path d="M3.37095 216.627C-2.322 225.536 -1.01029 237.342 2.98813 247.13C6.98655 256.917 13.3504 265.569 17.706 275.203C20.4828 281.345 22.43 287.857 25.5569 293.828C29.4289 301.222 35.0822 307.739 37.6804 315.671C39.3366 320.727 39.7166 326.269 42.3995 330.863C44.0212 333.319 45.872 335.615 47.9272 337.721C53.7059 344.341 58.0447 352.091 60.6678 360.478C63.1198 353.174 70.4626 348.384 78.0041 346.804C85.5457 345.225 93.36 346.298 100.989 347.376C96.7335 340.782 92.4363 334.105 89.8993 326.679C87.4457 319.497 86.7218 311.856 85.069 304.449C81.6797 289.258 74.4394 275.247 67.2716 261.432L104.114 258.51C110.127 257.905 116.173 257.681 122.214 257.838C131.724 258.287 141.04 260.618 150.499 261.695C159.957 262.772 169.963 262.49 178.393 258.066C162.274 281.193 153.88 308.824 154.409 337.009C158.012 334.218 162.193 332.267 166.647 331.301C171.101 330.334 175.714 330.376 180.15 331.422C184.585 332.469 188.731 334.495 192.282 337.35C195.834 340.206 198.702 343.82 200.676 347.928C215.115 328.198 213.398 300.73 224.839 279.124C227.191 274.681 230.074 270.542 232.613 266.203C237.635 257.622 241.277 248.317 244.898 239.057C248.098 230.871 251.322 221.764 248.252 213.528C246.978 210.404 245.122 207.55 242.783 205.118C236.182 197.84 226.994 192.457 217.172 192.233C202.093 191.888 189.636 203.066 176.409 210.313C160.829 218.85 142.652 222.244 124.931 220.989C106.762 219.702 89.4094 213.755 72.0991 208.517C63.4395 205.775 54.6377 203.505 45.7323 201.716C38.3091 200.323 31.2394 201.866 23.924 203.764C15.9595 205.831 7.9548 209.454 3.37095 216.627Z" fill="#2F2E41"/>
<path d="M160.687 53.9881C160.679 63.9437 156.72 73.4892 149.681 80.5288C142.641 87.5684 133.096 91.5269 123.14 91.535C120.903 91.5388 118.67 91.3377 116.469 90.9343C109.442 89.6653 102.923 86.4189 97.6762 81.5759C92.4293 76.7329 88.6721 70.4941 86.8455 63.5912C85.0189 56.6884 85.1985 49.4078 87.3634 42.6035C89.5282 35.7991 93.5885 29.7532 99.068 25.1749C104.547 20.5965 111.219 17.6756 118.3 16.7547C125.38 15.8339 132.577 16.9512 139.045 19.9758C145.513 23.0003 150.985 27.8067 154.818 33.831C158.651 39.8552 160.687 46.8477 160.687 53.9881Z" fill="#FFB8B8"/>
<path d="M101.238 89.6577C101.238 89.6577 108.121 92.7866 110.624 95.2897C113.127 97.7928 120.637 111.56 133.152 102.799C145.668 94.0381 146.92 89.0319 150.674 89.0319C154.429 89.0319 159.435 96.5413 159.435 96.5413L193.853 199.795C184.577 210.266 173.826 219.33 161.938 226.704C141.913 239.219 118.134 245.477 106.87 240.471C95.6055 235.465 74.329 231.71 70.5743 221.698C66.8196 211.685 60.5618 181.648 60.5618 181.648L78.0837 105.302L101.238 89.6577Z" fill="#F2F2F2"/>
<path d="M96.4052 194.086C99.1338 188.192 99.5307 181.521 99.7615 175.03C100.129 168.601 99.9589 162.153 99.2521 155.753C98.1429 147.381 95.4166 139.315 93.6949 131.048C92.1856 123.796 91.4519 116.405 91.5062 108.999C91.5313 105.619 91.776 102.061 93.6176 99.2275C94.9023 97.2505 96.912 95.7193 97.7148 93.5024C99.2889 89.1555 95.3995 84.6041 91.137 82.8141C86.0662 80.6846 80.2705 80.8275 74.9355 82.1637C69.6005 83.4999 64.6245 85.9578 59.6957 88.3981C56.1353 90.1609 52.4994 91.978 49.7385 94.8349C45.8535 98.8551 44.1452 104.454 42.7658 109.872C41.6618 114.209 40.6806 118.73 41.5206 123.125C42.8846 130.262 48.7028 135.63 51.8044 142.201C55.4061 149.832 55.1635 158.724 53.731 167.039C52.2984 175.354 49.7554 183.485 48.9712 191.886C48.187 200.287 49.3908 209.318 54.6542 215.913C56.7991 218.6 62.6178 224.969 66.5444 224.249C69.6292 223.683 74.1014 216.892 76.5864 214.739C83.7652 208.521 92.2829 202.99 96.4052 194.086Z" fill="#2F2E41"/>
<path d="M161.978 85.576C162.088 92.5564 159.011 99.1914 155.392 105.162C151.774 111.132 147.523 116.778 144.856 123.23C141.543 131.306 140.866 140.223 142.924 148.707C143.688 151.597 144.61 154.443 145.685 157.233L152.542 176.042C153.465 179 154.804 181.811 156.518 184.391C158.069 186.367 159.888 188.117 161.923 189.589C167.131 193.796 173.125 196.923 179.555 198.788C186.007 200.493 193.067 200.386 199.162 197.67C199.823 172.171 203.92 146.878 211.341 122.474C212.712 117.969 214.211 113.226 213.153 108.637C211.968 103.497 207.84 99.6381 203.915 96.1139C191.913 85.336 178.715 74.0148 162.649 72.5619C153.351 71.721 161.899 80.5294 161.978 85.576Z" fill="#2F2E41"/>
<path d="M79.8449 231.088C80.7968 232.952 81.3893 234.981 82.3306 236.85C83.7196 239.356 85.4371 241.665 87.4374 243.717C95.8057 252.996 106.035 262.239 118.517 262.799C119.758 262.915 121.008 262.758 122.181 262.338C124.364 261.43 125.654 259.09 126.079 256.764C126.964 251.917 124.825 247.081 122.683 242.644C118.04 233.028 112.816 223.167 104.123 216.965C95.5536 210.851 84.0717 209.367 74.0784 212.445C69.5503 213.84 62.0418 216.276 68.037 220.407C72.5852 223.541 77.2081 225.927 79.8449 231.088Z" fill="#FFB8B8"/>
<path d="M87.3535 382.543C83.6222 387.614 84.3703 394.862 81.0651 400.22C78.2001 404.864 72.8007 407.299 69.2172 411.415C68.0737 412.782 67.0543 414.249 66.1711 415.797C62.8468 421.365 60.1448 428.501 63.4188 434.099C66.0525 438.603 71.5884 440.363 76.6655 441.562C83.0826 443.078 89.75 444.292 96.2412 443.133C102.732 441.975 109.076 438 111.391 431.826C111.846 430.273 112.386 428.747 113.011 427.254C116.529 420.328 127.564 420.253 131.165 413.369C133.685 408.552 131.369 402.729 129.053 397.81L121.982 382.786C119.635 377.8 110.121 380.667 105.162 379.473C98.6931 377.914 92.0068 376.198 87.3535 382.543Z" fill="white"/>
<path d="M142.052 369.637C139.051 371.74 137.111 375.04 135.653 378.402C132.153 386.476 130.951 395.328 129.784 404.051C129.317 407.545 128.852 411.122 129.582 414.571C131.09 421.694 137.545 426.94 144.493 429.118C151.441 431.296 158.893 430.961 166.166 430.604C168.502 430.489 170.93 430.349 172.978 429.22C176.633 427.205 178.061 422.467 177.435 418.341C176.808 414.215 174.554 410.543 172.347 407C170.14 403.458 167.884 399.788 167.252 395.662C166.189 388.723 169.189 378.536 164.925 372.257C160.653 365.965 147.754 365.64 142.052 369.637Z" fill="white"/>
<path d="M40.9179 123.489C37.3355 128.774 33.2049 133.855 31.2358 139.929C30.0784 143.499 29.719 147.272 28.881 150.93C26.0901 163.114 18.027 173.936 17.2166 186.41C16.9327 189.181 17.3397 191.98 18.4013 194.556C20.7143 199.587 26.2498 202.239 31.5301 203.907C36.8104 205.575 42.4809 206.776 46.6956 210.368C48.8175 212.402 50.7416 214.633 52.4422 217.03C59.3183 225.582 68.5689 231.912 79.0315 235.222C78.205 229.528 77.8172 222.663 82.3695 219.143C84.8337 217.238 88.1265 216.899 91.2299 216.63L105.894 215.363C96.1157 205.878 85.3373 197.482 73.7482 190.321C69.6933 187.816 65.2799 185.174 63.4283 180.782C62.2709 178.036 62.2867 174.961 62.2593 171.981C62.1584 161.075 61.235 150.192 59.4968 139.425C58.2896 131.949 56.6911 124.539 54.8629 117.19C54.3496 115.127 51.3161 105.873 47.5823 108.038C46.7028 108.548 45.8799 114.418 45.3664 115.637C44.144 118.393 42.6541 121.023 40.9179 123.489Z" fill="#2F2E41"/>
<path opacity="0.1" d="M61.2112 139.533C61.3765 148.374 59.4985 157.133 55.7233 165.13C54.7412 166.897 54.0175 168.796 53.5743 170.768C52.9174 174.976 55.312 179.05 58.0489 182.313C63.4481 188.729 70.4509 193.601 78.3446 196.432" fill="black"/>
<path d="M154.643 94.6838L155.527 94.8236C154.754 94.7012 154.061 94.2768 153.601 93.6438C153.141 93.0108 152.951 92.2209 153.074 91.448L162.206 33.7523C162.328 32.9794 162.753 32.2868 163.386 31.8268C164.019 31.3667 164.809 31.177 165.581 31.2993L164.698 31.1595C165.313 31.2568 165.902 31.4742 166.433 31.7993C166.964 32.1244 167.425 32.5509 167.791 33.0543C168.157 33.5577 168.42 34.1283 168.565 34.7334C168.71 35.3385 168.735 35.9663 168.638 36.5809L160.065 90.7441C159.967 91.3588 159.75 91.9482 159.425 92.4789C159.1 93.0095 158.673 93.4709 158.17 93.8368C157.667 94.2026 157.096 94.4657 156.491 94.611C155.886 94.7563 155.258 94.7811 154.643 94.6838Z" fill="#2F2E41"/>
<path d="M164.386 31.1117L165.725 31.3237L155.67 94.8477L154.331 94.6357C154.105 94.5999 153.888 94.5199 153.692 94.4003C153.497 94.2806 153.327 94.1237 153.193 93.9385C153.058 93.7532 152.961 93.5433 152.908 93.3206C152.854 93.098 152.845 92.867 152.881 92.6408L162.391 32.5614C162.427 32.3352 162.507 32.1183 162.626 31.923C162.746 31.7278 162.903 31.558 163.088 31.4234C163.273 31.2888 163.483 31.192 163.706 31.1385C163.929 31.085 164.16 31.0759 164.386 31.1117Z" fill="#603F83"/>
<path d="M164.562 39.5265L164.305 39.4857C164.213 39.4712 164.127 39.5336 164.113 39.6251L163.345 44.4747C163.331 44.5662 163.393 44.652 163.485 44.6665L163.742 44.7073C163.834 44.7218 163.919 44.6594 163.934 44.5679L164.702 39.7183C164.716 39.6268 164.654 39.5409 164.562 39.5265Z" fill="#464353"/>
<path d="M187.273 83.5862C188.653 80.1087 190.056 76.5121 189.962 72.7717C189.724 69.3816 188.696 66.0941 186.961 63.172C184.851 59.251 182.217 55.6354 179.132 52.4249C175.459 48.6036 170.153 45.1913 165.144 46.9257C161.167 48.303 158.9 52.4435 157.428 56.3872C156.552 58.313 156.206 60.4376 156.425 62.542C156.912 65.2571 159.009 67.3414 160.529 69.6439C162.911 73.2539 163.932 77.5672 164.91 81.7802L167.364 92.3469L171.58 110.497C171.469 110.019 179.409 102.498 180.352 100.897C183.388 95.7397 185.062 89.1536 187.273 83.5862Z" fill="#FFB8B8"/>
<path d="M209.817 103.516L215.806 115.971C218.691 121.092 220.004 126.949 219.581 132.812L219.937 170.172C219.984 175.164 220.022 180.232 218.708 185.048C218.335 186.656 217.631 188.169 216.643 189.49C215.627 190.63 214.43 191.594 213.101 192.343C201.767 199.425 187.071 203.45 175.096 197.516C172.354 196.054 169.746 194.352 167.304 192.429C162.532 188.895 157.689 185.292 154.119 180.547C150.382 175.58 167.564 156.684 165.05 151C160.547 140.817 163.04 116.667 156.05 108C155.033 106.739 164.278 107.875 164.241 106.255C164.167 102.98 172.021 98.2459 175.05 97C180.226 94.8715 186.184 90.5285 187.05 85C198.056 99.432 167.153 143.039 184.52 148.312C184.792 148.486 185.106 148.583 185.429 148.593C185.752 148.603 186.072 148.526 186.354 148.369C186.637 148.212 186.872 147.981 187.034 147.702C187.196 147.422 187.28 147.104 187.276 146.781C188.261 142.656 188.61 138.409 189.331 134.23C190.654 126.62 193.201 119.275 196.873 112.48C198.93 108.67 205.59 94.7252 209.817 103.516Z" fill="#2F2E41"/>
<path opacity="0.1" d="M191.251 132.081C190.369 134.454 191.17 137.078 191.85 139.517C193.821 146.59 194.74 153.914 194.58 161.255C194.609 161.383 194.605 161.517 194.569 161.643C194.533 161.77 194.466 161.885 194.374 161.979C194.283 162.074 194.169 162.143 194.043 162.182C193.917 162.221 193.784 162.229 193.655 162.203C190.766 162.38 187.459 162.399 185.499 160.269" fill="black"/>
<path d="M87.0176 67C87.0176 67 90.0003 61.2185 89.3069 41.9045C88.6135 22.5905 115.26 33.5142 137.527 31.6718C159.793 29.8293 155.079 63.917 155.079 63.917C155.079 63.917 156.686 61.8907 160.125 45.4389C163.564 28.9871 155.755 12.5924 155.755 12.5924C153.455 -4.69533 141.061 0.845386 141.061 0.845386C147.03 3.41009 145.884 8.89402 145.884 8.89402C140.831 -0.883348 128.437 4.65734 128.437 4.65734C111.906 -6.792 95.1522 8.28538 95.1522 8.28538C75.1823 13.2877 86.8939 30.8161 86.8939 30.8161C66.8107 42.0179 87.0176 67 87.0176 67Z" fill="white"/>
</g>
<defs>
<clipPath id="clip0">
<rect width="249" height="444" fill="white"/>
</clipPath>
</defs>
</svg>
