<svg width="380" height="410" viewBox="0 0 380 410" fill="none" xmlns="http://www.w3.org/2000/svg">
<g clip-path="url(#clip0)">
<path fill-rule="evenodd" clip-rule="evenodd" d="M229.377 275.725H152.123L142 402.825H257L229.377 275.725Z" fill="#C5CFD6"/>
<path fill-rule="evenodd" clip-rule="evenodd" d="M229.377 275.725H205.617L191.396 402.825H257L229.377 275.725Z" fill="black" fill-opacity="0.1"/>
<g clip-path="url(#clip1)">
<path fill-rule="evenodd" clip-rule="evenodd" d="M196.738 97.0258C201.346 91.1936 204.464 84.0463 203.943 76.0375C202.442 52.9618 172.651 58.0382 166.857 69.6848C161.062 81.3314 161.75 110.874 169.24 112.956C172.226 113.786 178.589 111.752 185.065 107.543L181 138.55H205L196.738 97.0258Z" fill="#B28B67"/>
<path fill-rule="evenodd" clip-rule="evenodd" d="M189.27 84.4928C190.055 83.9112 190.993 83.5579 192 83.5579C194.761 83.5579 197 86.2131 197 88.9493C197 91.7958 195.753 93.9968 193.973 94.9305C194.924 96.9349 195.88 98.3896 197 98.6538C201.322 98.1824 207 86.5992 207 77.0883C207 66.6781 199.318 57.6793 185 57.6793C172.131 57.6793 167.251 63.4009 167 68.4621C172.515 70.0963 182.151 70.7256 196 70.6186V71.6969L184 72.7752L182 79.2448C185.182 78.9887 187.456 81.3421 189.27 84.4928Z" fill="#191847"/>
<path fill-rule="evenodd" clip-rule="evenodd" d="M69.4908 403.439C82.3035 372.861 91.5696 346.235 95.289 332.187C101.657 308.133 106.502 286.968 107.727 279.063C110.647 260.214 85.2647 259.117 81.9098 268.484C76.8319 282.663 67.9671 329.246 57.3154 399.609L69.4908 403.439ZM218.112 307.477C206.356 302.466 165.188 286.786 145.333 282.35C139.627 281.076 134.097 279.891 128.898 278.821C113.444 275.64 105.437 305.702 120.321 308.012C157.388 313.764 209.937 319.704 214.434 320.371C220.737 321.305 225.5 310.626 218.112 307.477Z" fill="#B28B67"/>
<path fill-rule="evenodd" clip-rule="evenodd" d="M119.413 270.549L183 235.645V228.047H175.438C113.92 244.95 82.4846 255.782 81.1313 260.544C81.1168 260.595 81.1034 260.647 81.0913 260.698C81.0603 260.742 81.0299 260.786 81 260.83C68.8085 278.909 61.5071 367.174 59.1106 373.783L82.4723 377.541C91.4087 341.809 120 316.917 119.241 274.121C119.446 272.865 119.497 271.675 119.413 270.549Z" fill="#603F83"/>
<path fill-rule="evenodd" clip-rule="evenodd" d="M177.717 291.278C183.535 290.022 188.893 288.901 193.477 288.034C223.091 282.433 231.726 265.341 226.62 228.047H172.058C163.145 230.808 116.826 251.753 92.7934 262.893C76.8874 270.266 81.9015 296.846 90.909 303.763C90.9579 304.187 91.12 304.476 91.4087 304.605C139.863 326.259 178.195 314.897 191 318.528L196.923 298.381L177.717 291.278Z" fill="#603F83"/>
<path fill-rule="evenodd" clip-rule="evenodd" d="M207.847 313.378C211.077 313.762 213.374 314.316 214.738 315.042C216.397 315.924 218.689 317.501 221.614 319.772C220.712 321.787 212.613 339.897 197.317 374.1C192.227 373.141 190.185 371.046 191.189 367.815C192.194 364.585 193.003 361.887 193.617 359.723L194.157 328.754C194.167 328.158 194.63 327.699 195.191 327.729C195.201 327.73 195.211 327.73 195.22 327.731L199.707 328.108C202.221 325.96 203.872 324.005 204.659 322.245C205.299 320.814 205.631 318.546 205.654 315.438L205.654 315.438C205.663 314.246 206.58 313.318 207.702 313.366C207.751 313.368 207.799 313.372 207.847 313.378Z" fill="black"/>
<path fill-rule="evenodd" clip-rule="evenodd" d="M75.3218 397.77C76.4406 400.99 77 403.4 77 404.998C77 406.943 76.6996 409.78 76.0987 413.511C74.0068 413.511 55.2062 413.511 19.6969 413.511C18.2312 408.286 19.0773 405.465 22.2351 405.049C25.393 404.632 28.0163 404.256 30.105 403.92L56.32 391.318C56.8244 391.076 57.4156 391.32 57.6405 391.864C57.6443 391.874 57.6481 391.883 57.6517 391.892L59.3368 396.3C62.2601 397.771 64.6356 398.506 66.4633 398.506C67.9482 398.506 69.999 397.859 72.6155 396.566L72.6155 396.566C73.6196 396.07 74.8067 396.545 75.267 397.628C75.2868 397.674 75.3051 397.722 75.3218 397.77Z" fill="#E4E4E4"/>
<path fill-rule="evenodd" clip-rule="evenodd" d="M123.11 206.623L91.2122 231.88C82.5607 234.398 75.3327 237.529 69.5282 241.276C68.157 242.623 66.4998 245.351 72.1863 244.88C77.8728 244.408 83.8737 244.188 84.6583 246.28C85.443 248.371 82.0018 250.872 83.5879 253.694C84.6453 255.575 89.6407 250.858 98.5743 239.543L130.162 225.419L123.11 206.623ZM267.461 196.103L249.85 199.542C270.29 243.277 281.237 266.402 282.693 268.916C285.967 274.572 282.662 284.763 281.414 290.139C288.661 292.103 285.983 280.238 295.15 282.877C303.518 285.286 310.55 291.197 318.513 283.554C319.492 282.614 320.246 279.633 316.986 278.036C308.864 274.056 296.888 266.665 294.973 263.847C292.361 260.004 283.19 237.423 267.461 196.103Z" fill="#B28B67"/>
<path fill-rule="evenodd" clip-rule="evenodd" d="M115.68 209.369C111.575 209.051 107.111 209.784 102.325 211.523C99.9697 212.379 98.7038 215.131 99.4973 217.671C99.9582 219.146 101.012 220.225 102.277 220.702C101.361 221.423 100.437 222.139 99.5048 222.852L107.552 240.565C141.415 222.36 173.243 208.634 187.746 178.577C192.614 168.49 190.966 134.224 191.431 121.759L180.736 117.029C165.827 150.258 145.651 182.138 115.68 209.369Z" fill="black"/>
<path fill-rule="evenodd" clip-rule="evenodd" d="M229 237.654C197.562 241.378 172.816 241.378 154.764 237.654C152.527 237.193 152.625 226.797 153.663 223.957C169.815 179.742 180.44 147.375 180.44 116.664C183.403 118.333 188.59 118.583 196 117.414C215.914 149.063 225.067 185.376 229 237.654Z" fill="white"/>
<path fill-rule="evenodd" clip-rule="evenodd" d="M199.894 115.906L205.053 133.014L194.664 145.838L204.053 155.916L181.338 197.855L209.116 156L199.894 145.838L209.116 134.505L199.894 115.906Z" fill="black" fill-opacity="0.1"/>
<path fill-rule="evenodd" clip-rule="evenodd" d="M188 214.029C190.209 214.029 192 212.098 192 209.716C192 207.334 190.209 205.403 188 205.403C185.791 205.403 184 207.334 184 209.716C184 212.098 185.791 214.029 188 214.029ZM183 238.83C185.209 238.83 187 236.899 187 234.517C187 232.135 185.209 230.204 183 230.204C180.791 230.204 179 232.135 179 234.517C179 236.899 180.791 238.83 183 238.83ZM182 263.63C184.209 263.63 186 261.699 186 259.317C186 256.935 184.209 255.004 182 255.004C179.791 255.004 178 256.935 178 259.317C178 261.699 179.791 263.63 182 263.63Z" fill="black" fill-opacity="0.4"/>
<path fill-rule="evenodd" clip-rule="evenodd" d="M234.841 242.882C235.909 241.799 236.466 240.175 236.192 238.502L235.671 235.316C235.318 233.157 233.692 231.585 231.772 231.339C231.437 229.722 231.147 228.115 230.908 226.52C228.889 213.045 232.339 199.833 232.177 186.859C248.257 201.653 262.682 227.197 275.452 263.491L294.339 257.499C293.618 254.612 292.872 251.76 292.099 248.944C294.279 247.609 296.827 241.489 294.993 240.465C293.1 239.407 291.094 238.662 288.982 238.224C271.665 181.982 243.345 140.85 204.024 114.828H200.546L192.652 114.828C196 162.575 149.75 266.816 165.809 355.842C195.492 362.99 237.868 340.752 279.117 358.519C277.582 322.667 246.837 280.549 234.841 242.882Z" fill="black"/>
<path fill-rule="evenodd" clip-rule="evenodd" d="M80.3797 385.339C81.4599 389.353 82 392.357 82 394.35C82 396.123 81.8449 398.49 81.5348 401.453C81.3248 403.459 79.621 404.962 77.6034 404.962C70.8651 404.962 54.9633 404.962 29.898 404.962C28.0162 404.962 26.3451 403.653 26.131 401.783C25.6172 397.297 26.6148 394.84 29.1236 394.413C31.8324 393.951 34.1338 393.53 36.0278 393.148C36.4876 393.055 36.926 392.88 37.3245 392.632L62.0331 377.296C62.5201 376.994 63.091 377.299 63.3081 377.977C63.3118 377.988 63.3154 378 63.3189 378.012L64.5269 382.092C64.7973 383.005 65.379 383.802 66.2014 384.282C68.4563 385.598 70.3314 386.257 71.8267 386.257C73.2604 386.257 75.2404 385.45 77.7667 383.838C78.7362 383.219 79.8824 383.812 80.3268 385.162C80.346 385.22 80.3636 385.279 80.3797 385.339Z" fill="black"/>
</g>
</g>
<defs>
<clipPath id="clip0">
<rect width="380" height="410" fill="white"/>
</clipPath>
<clipPath id="clip1">
<rect width="380" height="427.425" fill="white" transform="translate(0 -24.6)"/>
</clipPath>
</defs>
</svg>
