<svg width="380" height="410" viewBox="0 0 380 410" fill="none" xmlns="http://www.w3.org/2000/svg">
<g clip-path="url(#clip0)">
<path fill-rule="evenodd" clip-rule="evenodd" d="M229.377 275.075H152.123L142 402.775H257L229.377 275.075Z" fill="#C5CFD6"/>
<path fill-rule="evenodd" clip-rule="evenodd" d="M229.377 275.075H205.617L191.396 402.775H257L229.377 275.075Z" fill="black" fill-opacity="0.1"/>
<path fill-rule="evenodd" clip-rule="evenodd" d="M196.738 95.5322C201.346 89.6725 204.464 82.4914 203.943 74.4448C202.442 51.2602 172.651 56.3606 166.857 68.0622C161.062 79.7637 161.75 109.446 169.24 111.538C172.226 112.371 178.589 110.328 185.065 106.099L181 137.252H205L196.738 95.5322Z" fill="#FFB8B8"/>
<path fill-rule="evenodd" clip-rule="evenodd" d="M69.4908 403.391C82.3035 372.669 91.5696 345.918 95.289 331.803C101.657 307.636 106.502 286.371 107.727 278.428C110.647 259.491 85.2647 258.388 81.9098 267.8C76.8319 282.045 67.9671 328.848 57.3154 399.543L69.4908 403.391ZM218.112 306.977C206.356 301.942 165.188 286.188 145.333 281.731C139.627 280.451 134.097 279.26 128.898 278.185C113.444 274.989 105.437 305.193 120.321 307.514C157.388 313.293 209.937 319.261 214.434 319.931C220.737 320.87 225.5 310.14 218.112 306.977Z" fill="#FFB8B8"/>
<path fill-rule="evenodd" clip-rule="evenodd" d="M119.413 269.874L183 234.805V227.172H175.438C113.92 244.154 82.4846 255.038 81.1313 259.822C81.1168 259.873 81.1034 259.925 81.0913 259.977C81.0603 260.021 81.0299 260.065 81 260.109C68.8085 278.274 61.5071 366.955 59.1106 373.595L82.4723 377.371C91.4087 341.471 120 316.461 119.241 273.463C119.446 272.201 119.497 271.006 119.413 269.874Z" fill="#603F83"/>
<path fill-rule="evenodd" clip-rule="evenodd" d="M177.717 290.701C183.535 289.439 188.893 288.313 193.477 287.442C223.091 281.814 231.726 264.642 226.62 227.172H172.058C163.145 229.946 116.826 250.99 92.7934 262.182C76.8874 269.59 81.9015 296.295 90.909 303.245C90.9579 303.671 91.12 303.961 91.4087 304.091C139.863 325.847 178.195 314.432 191 318.08L196.923 297.838L177.717 290.701Z" fill="#603F83"/>
<path fill-rule="evenodd" clip-rule="evenodd" d="M207.847 312.905C211.077 313.291 213.374 313.848 214.738 314.577C216.397 315.463 218.689 317.048 221.614 319.33C220.712 321.354 212.613 339.55 197.317 373.914C192.227 372.951 190.185 370.846 191.189 367.599C192.194 364.354 193.003 361.643 193.617 359.469L194.157 328.354C194.167 327.755 194.63 327.294 195.191 327.324C195.201 327.325 195.211 327.325 195.22 327.326L199.707 327.705C202.221 325.547 203.872 323.583 204.659 321.814C205.299 320.377 205.631 318.098 205.654 314.975C205.663 313.778 206.58 312.845 207.702 312.893C207.751 312.895 207.799 312.899 207.847 312.905Z" fill="black"/>
<path fill-rule="evenodd" clip-rule="evenodd" d="M75.3218 397.696C76.4406 400.931 77 403.352 77 404.958C77 406.912 76.6996 409.762 76.0987 413.511C74.0068 413.511 55.2062 413.511 19.6969 413.511C18.2312 408.261 19.0773 405.427 22.2351 405.009C25.393 404.59 28.0163 404.212 30.105 403.875L56.32 391.213C56.8244 390.97 57.4156 391.215 57.6405 391.762C57.6443 391.772 57.6481 391.781 57.6517 391.79L59.3368 396.219C62.2601 397.697 64.6356 398.435 66.4633 398.435C67.9482 398.435 69.999 397.785 72.6155 396.486C73.6196 395.988 74.8067 396.465 75.267 397.553C75.2868 397.599 75.3051 397.648 75.3218 397.696Z" fill="#E4E4E4"/>
<path fill-rule="evenodd" clip-rule="evenodd" d="M123.11 205.647L91.2122 231.023C82.5607 233.553 75.3327 236.698 69.5282 240.463C68.157 241.816 66.4998 244.557 72.1863 244.084C77.8728 243.61 83.8737 243.389 84.6583 245.491C85.443 247.592 82.0018 250.104 83.5879 252.94C84.6453 254.83 89.6407 250.09 98.5743 238.722L130.162 224.531L123.11 205.647ZM267.461 195.077L249.85 198.532C270.29 242.474 281.237 265.708 282.693 268.234C285.967 273.916 282.662 284.155 281.414 289.557C288.661 291.53 285.983 279.609 295.15 282.26C303.518 284.681 310.55 290.62 318.513 282.941C319.492 281.996 320.246 279.001 316.986 277.397C308.864 273.398 296.888 265.972 294.973 263.141C292.361 259.279 283.19 236.592 267.461 195.077Z" fill="#FFB8B8"/>
<path fill-rule="evenodd" clip-rule="evenodd" d="M115.68 208.406C111.575 208.086 107.111 208.823 102.325 210.57C99.9697 211.43 98.7038 214.195 99.4973 216.747C99.9582 218.229 101.012 219.313 102.277 219.792C101.361 220.516 100.437 221.236 99.5048 221.952L107.552 239.749C141.415 221.458 173.243 207.667 187.746 177.468C192.614 167.334 190.966 132.906 191.431 120.382L180.736 115.63C165.827 149.016 145.651 181.046 115.68 208.406Z" fill="black"/>
<path fill-rule="evenodd" clip-rule="evenodd" d="M229 236.824C197.562 240.566 172.816 240.566 154.764 236.824C152.527 236.361 152.625 225.916 153.663 223.062C169.815 178.639 180.44 146.119 180.44 115.263C183.403 116.94 188.59 117.191 196 116.017C215.914 147.815 225.067 184.299 229 236.824Z" fill="white"/>
<path fill-rule="evenodd" clip-rule="evenodd" d="M199.894 114.501L205.053 131.69L194.664 144.575L204.053 154.7L181.338 196.837L209.116 154.785L199.894 144.575L209.116 133.188L199.894 114.501Z" fill="black" fill-opacity="0.1"/>
<path fill-rule="evenodd" clip-rule="evenodd" d="M188 213.088C190.209 213.088 192 211.147 192 208.754C192 206.361 190.209 204.421 188 204.421C185.791 204.421 184 206.361 184 208.754C184 211.147 185.791 213.088 188 213.088ZM183 238.006C185.209 238.006 187 236.066 187 233.672C187 231.279 185.209 229.339 183 229.339C180.791 229.339 179 231.279 179 233.672C179 236.066 180.791 238.006 183 238.006ZM182 262.923C184.209 262.923 186 260.983 186 258.589C186 256.196 184.209 254.256 182 254.256C179.791 254.256 178 256.196 178 258.589C178 260.983 179.791 262.923 182 262.923Z" fill="black" fill-opacity="0.4"/>
<path fill-rule="evenodd" clip-rule="evenodd" d="M234.841 242.077C235.909 240.989 236.466 239.357 236.192 237.676L235.671 234.475C235.318 232.306 233.692 230.726 231.772 230.479C231.437 228.855 231.147 227.24 230.908 225.637C228.889 212.099 232.339 198.825 232.177 185.789C248.257 200.653 262.682 226.318 275.452 262.783L294.339 256.763C293.618 253.862 292.872 250.997 292.099 248.167C294.279 246.826 296.827 240.677 294.993 239.648C293.1 238.585 291.094 237.837 288.982 237.397C271.665 180.889 243.345 139.563 204.024 113.418H200.546H192.652C196 161.391 149.75 266.124 165.809 355.57C195.492 362.752 237.868 340.409 279.117 358.259C277.582 322.238 246.837 279.921 234.841 242.077Z" fill="black"/>
<path fill-rule="evenodd" clip-rule="evenodd" d="M80.3797 385.206C81.4599 389.239 82 392.257 82 394.26C82 396.041 81.8449 398.419 81.5348 401.396C81.3248 403.412 79.621 404.922 77.6034 404.922C70.8651 404.922 54.9633 404.922 29.898 404.922C28.0162 404.922 26.3451 403.606 26.131 401.728C25.6172 397.22 26.6148 394.752 29.1236 394.323C31.8324 393.859 34.1338 393.436 36.0278 393.052C36.4876 392.958 36.926 392.783 37.3245 392.533L62.0331 377.125C62.5201 376.822 63.091 377.128 63.3081 377.809C63.3118 377.82 63.3154 377.832 63.3189 377.844L64.5269 381.944C64.7973 382.861 65.379 383.662 66.2014 384.144C68.4563 385.466 70.3314 386.128 71.8267 386.128C73.2604 386.128 75.2404 385.318 77.7667 383.698C78.7362 383.076 79.8824 383.672 80.3268 385.028C80.346 385.086 80.3636 385.146 80.3797 385.206Z" fill="black"/>
<path d="M186.772 83.9559C184.458 84.2591 182.712 81.8747 181.902 79.6705C181.093 77.4663 180.476 74.9002 178.464 73.7096C175.715 72.0829 172.198 74.0394 169.054 73.5027C165.504 72.8966 163.196 69.1078 163.016 65.4864C162.835 61.865 164.266 58.382 165.67 55.0431L166.16 59.1926C166.094 57.7862 166.388 56.3864 167.013 55.1271C167.639 53.8678 168.574 52.7911 169.731 52L169.099 58.0887C169.233 57.2487 169.531 56.4437 169.975 55.7199C170.42 54.9961 171.001 54.3677 171.687 53.8709C172.373 53.374 173.15 53.0185 173.972 52.8247C174.795 52.6309 175.648 52.6026 176.481 52.7414L176.382 56.3693C180.482 55.8783 184.618 55.3867 188.73 55.7607C192.842 56.1348 196.984 57.4451 200.1 60.1724C204.762 64.2522 206.465 70.9699 205.894 77.1632C205.322 83.3565 202.783 89.1746 200.137 94.795C199.472 96.2091 198.551 97.8048 197.007 97.9849C195.62 98.1468 194.351 96.9792 193.92 95.6418C193.588 94.2696 193.601 92.8355 193.957 91.4696C194.348 89.382 194.839 87.2483 194.472 85.1565C194.106 83.0647 192.611 80.9976 190.518 80.7412C188.424 80.4849 186.281 82.8952 187.288 84.7618L186.772 83.9559Z" fill="white"/>
</g>
<defs>
<clipPath id="clip0">
<rect width="380" height="410" fill="white"/>
</clipPath>
</defs>
</svg>
