<svg width="2343" height="319" viewBox="0 0 2343 319" fill="none" xmlns="http://www.w3.org/2000/svg">
<path d="M38 95H2292V319H0V115L38 95Z" fill="url(#paint0_linear)"/>
<path d="M2292 105.5L2325 75V259.5L2292 319V105.5Z" fill="url(#paint1_linear)"/>
<path d="M152.499 75H2325L2292.5 117H0L152.499 75Z" fill="url(#paint2_linear)"/>
<path d="M2271.04 19.9124C2271.04 19.9124 2272.29 28.6287 2267.68 29.326C2263.06 30.0233 2271.87 41.8774 2271.87 41.8774L2292.85 43.9693L2287.82 30.0233C2287.82 30.0233 2284.46 28.9773 2286.56 22.0043C2288.66 15.0313 2271.04 19.9124 2271.04 19.9124Z" fill="#FFB8B8"/>
<path d="M2257.42 167.028L2259.11 186.385H2267.98L2265.45 167.028H2257.42Z" fill="#FFB8B8"/>
<path d="M2322.89 133.993L2324.13 150.159L2333.68 146.645L2329.95 133.291L2322.89 133.993Z" fill="#FFB8B8"/>
<path d="M2251.79 96.8578C2251.79 96.8578 2252.21 117.207 2254.73 123.874C2257.25 130.54 2256.83 130.891 2256.41 131.943C2255.99 132.996 2255.57 132.294 2255.57 134.049C2255.57 135.803 2254.73 163.52 2255.57 165.976C2256.41 168.432 2253.05 172.643 2255.57 172.993C2258.09 173.344 2269.85 172.993 2270.27 170.888C2270.69 168.783 2266.91 168.081 2268.59 166.678C2270.27 165.275 2272.79 136.504 2272.79 136.504L2278.67 116.506L2289.59 105.98H2312.68L2319.82 129.137C2319.82 129.137 2316.88 135.803 2318.98 135.803C2321.08 135.803 2333.68 137.908 2333.68 130.189C2333.68 122.47 2329.48 99.6647 2328.64 98.963C2327.8 98.2613 2329.06 95.8053 2327.8 94.7527C2326.54 93.7001 2311.84 86.3322 2306.39 84.9288C2300.93 83.5253 2293.27 81.855 2293.27 81.855L2251.79 96.8578Z" fill="black"/>
<path d="M2333.64 143.801C2333.64 143.801 2327.32 142.059 2324.37 147.286C2321.42 152.512 2322.69 153.906 2322.69 153.906C2322.69 153.906 2332.38 156.694 2334.06 155.3C2334.8 154.693 2337.13 154.483 2339.52 154.438C2343.17 154.371 2344.15 150.1 2340.7 149.105C2340.59 149.075 2340.49 149.05 2340.39 149.028C2337.01 148.331 2333.64 143.801 2333.64 143.801Z" fill="white"/>
<path d="M2280.3 25.4413C2287.23 25.4413 2292.85 20.7366 2292.85 14.9329C2292.85 9.12932 2287.23 4.42456 2280.3 4.42456C2273.37 4.42456 2267.75 9.12932 2267.75 14.9329C2267.75 20.7366 2273.37 25.4413 2280.3 25.4413Z" fill="#FFB8B8"/>
<path d="M2263.93 33.7336C2263.93 33.7336 2284.5 37.2356 2289.54 31.6324C2294.57 26.0292 2296.67 47.3914 2296.67 47.3914L2299.19 69.8042L2295.41 82.0612C2295.41 82.0612 2275.68 95.3688 2269.39 96.4194C2263.09 97.47 2253.44 98.1704 2253.44 98.1704C2253.44 98.1704 2256.37 59.2982 2256.37 58.5978C2256.37 57.8974 2263.93 33.7336 2263.93 33.7336Z" fill="#603F83"/>
<path d="M2270.28 26.9927C2270.28 26.9927 2265.74 24.8049 2264.49 26.9068C2263.24 29.0086 2251.58 34.2631 2250.33 34.2631C2249.08 34.2631 2252.83 63.3383 2251.16 66.8413C2249.5 70.3443 2241.58 95.9165 2246.16 98.0183C2250.75 100.12 2247.41 95.9165 2252 101.171C2256.58 106.426 2279.07 106.426 2280.32 104.324C2281.57 102.222 2270.32 86.4583 2272.41 71.7455C2274.49 57.0328 2277.82 36.7152 2274.91 33.9128C2271.99 31.1104 2270.28 26.9927 2270.28 26.9927Z" fill="#2F2E41"/>
<path d="M2285.35 29.3356L2285.93 27.6536C2285.93 27.6536 2303.33 32.4936 2304.17 35.6517C2305.01 38.8097 2304.59 60.9161 2301.66 62.6705C2298.73 64.425 2294.55 67.2322 2297.48 71.4429C2300.4 75.6536 2303.75 80.2152 2306.26 80.5661C2308.77 80.917 2313.37 83.3733 2312.12 85.8295C2310.86 88.2858 2295.8 83.7242 2295.8 83.7242C2295.8 83.7242 2285.76 77.4081 2286.18 67.583C2286.6 57.758 2285.35 29.3356 2285.35 29.3356Z" fill="#2F2E41"/>
<path d="M2300.08 70.7932L2290.01 86.6944C2290.01 86.6944 2275.32 99.4154 2283.71 100.829C2292.11 102.242 2296.72 89.1679 2296.72 89.1679L2307.64 76.0936L2300.08 70.7932Z" fill="#FFB8B8"/>
<path d="M2300.01 34.2905L2303.98 35.1596C2303.98 35.1596 2313.2 54.6713 2311.07 68.0243C2308.95 81.3772 2307.67 78.5661 2307.67 78.5661C2307.67 78.5661 2304.27 72.241 2296.61 73.6466L2300.01 34.2905Z" fill="#2F2E41"/>
<path d="M2258.9 184.097C2257.89 185.252 2258.09 186.902 2257.2 188.122C2256.42 189.18 2254.96 189.735 2254 190.672C2253.69 190.983 2253.41 191.317 2253.17 191.67C2252.27 192.938 2251.54 194.563 2252.43 195.838C2253.14 196.863 2254.64 197.264 2256.01 197.537C2257.74 197.883 2259.54 198.159 2261.3 197.895C2263.05 197.631 2264.77 196.726 2265.39 195.32C2265.52 194.966 2265.66 194.619 2265.83 194.279C2266.78 192.702 2269.76 192.685 2270.74 191.117C2271.42 190.02 2270.79 188.694 2270.17 187.574L2268.26 184.152C2267.62 183.017 2265.05 183.67 2263.71 183.398C2261.96 183.043 2260.15 182.652 2258.9 184.097Z" fill="white"/>
<path d="M2244.75 77.6916L2262.38 100.66C2262.38 100.66 2273.29 112.321 2276.65 107.021C2280 101.72 2264.9 92.8863 2264.9 92.8863L2253.57 75.218L2244.75 77.6916Z" fill="#FFB8B8"/>
<path d="M2253.65 34.9942L2250.26 34.2905C2250.26 34.2905 2243.48 36.0497 2241.79 43.4382C2240.09 50.8266 2241.36 80.3806 2243.48 80.7324C2245.6 81.0842 2253.95 75.5865 2255.28 76.7521C2256.62 77.9177 2252.38 71.9366 2253.65 68.7701C2254.92 65.6036 2253.65 34.9942 2253.65 34.9942Z" fill="#2F2E41"/>
<path d="M2269.24 17.9749C2269.24 17.9749 2270.28 16.4238 2270.04 11.2422C2269.8 6.06062 2279.06 8.99125 2286.8 8.49696C2294.55 8.00266 2292.91 17.1477 2292.91 17.1477C2292.91 17.1477 2293.47 16.6041 2294.66 12.1904C2295.86 7.77672 2293.14 3.37831 2293.14 3.37831C2292.34 -1.25966 2288.03 0.226807 2288.03 0.226807C2290.11 0.91487 2289.71 2.38611 2289.71 2.38611C2287.95 -0.23698 2283.64 1.24949 2283.64 1.24949C2277.9 -1.82216 2272.07 2.22282 2272.07 2.22282C2265.13 3.56485 2269.2 8.2674 2269.2 8.2674C2262.22 11.2726 2269.24 17.9749 2269.24 17.9749Z" fill="white"/>
<defs>
<linearGradient id="paint0_linear" x1="1146" y1="92.899" x2="1146" y2="319" gradientUnits="userSpaceOnUse">
<stop stop-color="#C4C4C4" stop-opacity="0"/>
<stop offset="0.136715" stop-color="#333333"/>
</linearGradient>
<linearGradient id="paint1_linear" x1="2292" y1="235.5" x2="2297.35" y2="235.5" gradientUnits="userSpaceOnUse">
<stop stop-color="#252525"/>
<stop offset="0.723958" stop-color="#313030"/>
</linearGradient>
<linearGradient id="paint2_linear" x1="2269" y1="78.9999" x2="2303" y2="104" gradientUnits="userSpaceOnUse">
<stop offset="0.909815" stop-color="#525151"/>
<stop offset="1" stop-color="#202020"/>
</linearGradient>
</defs>
</svg>
