<svg width="2363" height="319" viewBox="0 0 2363 319" fill="none" xmlns="http://www.w3.org/2000/svg">
<path d="M38 95H2292V319H0V115L38 95Z" fill="url(#paint0_linear)"/>
<path d="M2292 105.5L2363 75V226.5L2292 319V105.5Z" fill="url(#paint1_linear)"/>
<path d="M153.155 75H2363L2292.5 117H0L153.155 75Z" fill="url(#paint2_linear)"/>
<path d="M2276.04 19.9124C2276.04 19.9124 2277.29 28.6287 2272.68 29.326C2268.06 30.0233 2276.87 41.8774 2276.87 41.8774L2297.85 43.9693L2292.82 30.0233C2292.82 30.0233 2289.46 28.9773 2291.56 22.0043C2293.66 15.0313 2276.04 19.9124 2276.04 19.9124Z" fill="#FFB8B8"/>
<path d="M2262.42 167.028L2264.11 186.385H2272.98L2270.45 167.028H2262.42Z" fill="#FFB8B8"/>
<path d="M2327.89 133.993L2329.13 150.159L2338.68 146.645L2334.95 133.291L2327.89 133.993Z" fill="#FFB8B8"/>
<path d="M2256.79 96.8578C2256.79 96.8578 2257.21 117.207 2259.73 123.874C2262.25 130.54 2261.83 130.891 2261.41 131.943C2260.99 132.996 2260.57 132.294 2260.57 134.049C2260.57 135.803 2259.73 163.52 2260.57 165.976C2261.41 168.432 2258.05 172.643 2260.57 172.993C2263.09 173.344 2274.85 172.993 2275.27 170.888C2275.69 168.783 2271.91 168.081 2273.59 166.678C2275.27 165.275 2277.79 136.504 2277.79 136.504L2283.67 116.506L2294.59 105.98H2317.68L2324.82 129.137C2324.82 129.137 2321.88 135.803 2323.98 135.803C2326.08 135.803 2338.68 137.908 2338.68 130.189C2338.68 122.47 2334.48 99.6647 2333.64 98.963C2332.8 98.2613 2334.06 95.8053 2332.8 94.7527C2331.54 93.7001 2316.84 86.3322 2311.39 84.9288C2305.93 83.5253 2298.27 81.855 2298.27 81.855L2256.79 96.8578Z" fill="black"/>
<path d="M2338.64 143.801C2338.64 143.801 2332.32 142.059 2329.37 147.286C2326.42 152.512 2327.69 153.906 2327.69 153.906C2327.69 153.906 2337.38 156.694 2339.06 155.3C2339.8 154.693 2342.13 154.483 2344.52 154.438C2348.17 154.371 2349.15 150.1 2345.7 149.105C2345.59 149.075 2345.49 149.05 2345.39 149.028C2342.01 148.331 2338.64 143.801 2338.64 143.801Z" fill="white"/>
<path d="M2285.3 25.4413C2292.23 25.4413 2297.85 20.7366 2297.85 14.9329C2297.85 9.12932 2292.23 4.42456 2285.3 4.42456C2278.37 4.42456 2272.75 9.12932 2272.75 14.9329C2272.75 20.7366 2278.37 25.4413 2285.3 25.4413Z" fill="#FFB8B8"/>
<path d="M2268.93 33.7336C2268.93 33.7336 2289.5 37.2356 2294.54 31.6324C2299.57 26.0292 2301.67 47.3914 2301.67 47.3914L2304.19 69.8042L2300.41 82.0612C2300.41 82.0612 2280.68 95.3688 2274.39 96.4194C2268.09 97.47 2258.44 98.1704 2258.44 98.1704C2258.44 98.1704 2261.37 59.2982 2261.37 58.5978C2261.37 57.8974 2268.93 33.7336 2268.93 33.7336Z" fill="#603F83"/>
<path d="M2275.28 26.9927C2275.28 26.9927 2270.74 24.8049 2269.49 26.9068C2268.24 29.0086 2256.58 34.2631 2255.33 34.2631C2254.08 34.2631 2257.83 63.3383 2256.16 66.8413C2254.5 70.3443 2246.58 95.9165 2251.16 98.0183C2255.75 100.12 2252.41 95.9165 2257 101.171C2261.58 106.426 2284.07 106.426 2285.32 104.324C2286.57 102.222 2275.32 86.4583 2277.41 71.7455C2279.49 57.0328 2282.82 36.7152 2279.91 33.9128C2276.99 31.1104 2275.28 26.9927 2275.28 26.9927Z" fill="#2F2E41"/>
<path d="M2290.35 29.3356L2290.93 27.6536C2290.93 27.6536 2308.33 32.4936 2309.17 35.6517C2310.01 38.8097 2309.59 60.9161 2306.66 62.6705C2303.73 64.425 2299.55 67.2322 2302.48 71.4429C2305.4 75.6536 2308.75 80.2152 2311.26 80.5661C2313.77 80.917 2318.37 83.3733 2317.12 85.8295C2315.86 88.2858 2300.8 83.7242 2300.8 83.7242C2300.8 83.7242 2290.76 77.4081 2291.18 67.583C2291.6 57.758 2290.35 29.3356 2290.35 29.3356Z" fill="#2F2E41"/>
<path d="M2305.08 70.7932L2295.01 86.6944C2295.01 86.6944 2280.32 99.4154 2288.71 100.829C2297.11 102.242 2301.72 89.1679 2301.72 89.1679L2312.64 76.0936L2305.08 70.7932Z" fill="#FFB8B8"/>
<path d="M2305.01 34.2905L2308.98 35.1596C2308.98 35.1596 2318.2 54.6713 2316.07 68.0243C2313.95 81.3772 2312.67 78.5661 2312.67 78.5661C2312.67 78.5661 2309.27 72.241 2301.61 73.6466L2305.01 34.2905Z" fill="#2F2E41"/>
<path d="M2263.9 184.097C2262.89 185.252 2263.09 186.902 2262.2 188.122C2261.42 189.18 2259.96 189.735 2259 190.672C2258.69 190.983 2258.41 191.317 2258.17 191.67C2257.27 192.938 2256.54 194.563 2257.43 195.838C2258.14 196.863 2259.64 197.264 2261.01 197.537C2262.74 197.883 2264.54 198.159 2266.3 197.895C2268.05 197.631 2269.77 196.726 2270.39 195.32C2270.52 194.966 2270.66 194.619 2270.83 194.279C2271.78 192.702 2274.76 192.685 2275.74 191.117C2276.42 190.02 2275.79 188.694 2275.17 187.574L2273.26 184.152C2272.62 183.017 2270.05 183.67 2268.71 183.398C2266.96 183.043 2265.15 182.652 2263.9 184.097Z" fill="white"/>
<path d="M2249.75 77.6916L2267.38 100.66C2267.38 100.66 2278.29 112.321 2281.65 107.021C2285 101.72 2269.9 92.8863 2269.9 92.8863L2258.57 75.218L2249.75 77.6916Z" fill="#FFB8B8"/>
<path d="M2258.65 34.9942L2255.26 34.2905C2255.26 34.2905 2248.48 36.0497 2246.79 43.4382C2245.09 50.8266 2246.36 80.3806 2248.48 80.7324C2250.6 81.0842 2258.95 75.5865 2260.28 76.7521C2261.62 77.9177 2257.38 71.9366 2258.65 68.7701C2259.92 65.6036 2258.65 34.9942 2258.65 34.9942Z" fill="#2F2E41"/>
<path d="M2274.24 17.9749C2274.24 17.9749 2275.28 16.4238 2275.04 11.2422C2274.8 6.06061 2284.06 8.99124 2291.8 8.49695C2299.55 8.00265 2297.91 17.1477 2297.91 17.1477C2297.91 17.1477 2298.47 16.6041 2299.66 12.1904C2300.86 7.77671 2298.14 3.3783 2298.14 3.3783C2297.34 -1.25967 2293.03 0.226801 2293.03 0.226801C2295.11 0.914864 2294.71 2.3861 2294.71 2.3861C2292.95 -0.236986 2288.64 1.24948 2288.64 1.24948C2282.9 -1.82217 2277.07 2.22281 2277.07 2.22281C2270.13 3.56484 2274.2 8.26739 2274.2 8.26739C2267.22 11.2726 2274.24 17.9749 2274.24 17.9749Z" fill="white"/>
<defs>
<linearGradient id="paint0_linear" x1="1146" y1="92.899" x2="1146" y2="319" gradientUnits="userSpaceOnUse">
<stop stop-color="#C4C4C4" stop-opacity="0"/>
<stop offset="0.136715" stop-color="#333333"/>
</linearGradient>
<linearGradient id="paint1_linear" x1="2292" y1="235.5" x2="2303.5" y2="235.5" gradientUnits="userSpaceOnUse">
<stop stop-color="#121212"/>
<stop offset="1" stop-color="#202020"/>
</linearGradient>
<linearGradient id="paint2_linear" x1="2238" y1="83.7907" x2="2271.72" y2="141.126" gradientUnits="userSpaceOnUse">
<stop offset="0.751655" stop-color="#C4C4C4"/>
<stop offset="1" stop-color="#202020"/>
</linearGradient>
</defs>
</svg>
