<svg width="387" height="583" viewBox="0 0 387 583" fill="none" xmlns="http://www.w3.org/2000/svg">
<g clip-path="url(#clip0)">
<path d="M1.48816 162.927L1.78046 162.711L1.78748 162.705C2.16452 162.425 2.59303 162.222 3.04852 162.108C3.50401 161.994 3.97754 161.97 4.44214 162.039C4.90674 162.107 5.3533 162.267 5.75629 162.508C6.15927 162.749 6.51082 163.067 6.79083 163.444L66.2867 243.55H72.8324V242.012C72.8324 241.633 72.9831 241.269 73.2513 241.001C73.5196 240.732 73.8835 240.582 74.2629 240.582H78.1682C78.5476 240.582 78.9114 240.732 79.1797 241.001C79.448 241.269 79.5987 241.633 79.5987 242.012V243.55H81.8591V242.012C81.8591 241.633 82.0098 241.269 82.2781 241.001C82.5463 240.732 82.9102 240.582 83.2896 240.582H87.1949C87.5743 240.582 87.9381 240.732 88.2064 241.001C88.4747 241.269 88.6254 241.633 88.6254 242.012V243.55H90.8784V242.012C90.8784 241.633 91.0292 241.269 91.2974 241.001C91.5657 240.732 91.9296 240.582 92.309 240.582H96.2142C96.5936 240.582 96.9575 240.732 97.2258 241.001C97.494 241.269 97.6448 241.633 97.6448 242.012V243.55H99.9051V242.012C99.9051 241.633 100.056 241.269 100.324 241.001C100.592 240.732 100.956 240.582 101.336 240.582H105.241C105.62 240.582 105.984 240.732 106.252 241.001C106.521 241.269 106.671 241.633 106.671 242.012V243.55H108.924V242.012C108.924 241.633 109.075 241.269 109.344 241.001C109.612 240.732 109.976 240.582 110.355 240.582H114.26C114.448 240.582 114.634 240.619 114.808 240.691C114.981 240.762 115.139 240.868 115.272 241.001C115.405 241.133 115.51 241.291 115.582 241.465C115.654 241.638 115.691 241.824 115.691 242.012V243.55H117.951V242.012C117.951 241.633 118.102 241.269 118.37 241.001C118.638 240.732 119.002 240.582 119.382 240.582H123.287C123.666 240.582 124.03 240.732 124.298 241.001C124.567 241.269 124.717 241.633 124.717 242.012V243.55H126.978V242.012C126.978 241.633 127.129 241.269 127.397 241.001C127.665 240.732 128.029 240.582 128.408 240.582H132.314C132.693 240.582 133.057 240.732 133.325 241.001C133.593 241.269 133.744 241.633 133.744 242.012V243.55H135.997V242.012C135.997 241.633 136.148 241.269 136.416 241.001C136.684 240.732 137.048 240.582 137.428 240.582H141.333C141.712 240.582 142.076 240.732 142.344 241.001C142.613 241.269 142.763 241.633 142.763 242.012V243.55H145.024V242.012C145.024 241.633 145.175 241.269 145.443 241.001C145.711 240.732 146.075 240.582 146.454 240.582H150.36C150.739 240.582 151.103 240.732 151.371 241.001C151.639 241.269 151.79 241.633 151.79 242.012V243.55H154.043V242.012C154.043 241.633 154.194 241.269 154.462 241.001C154.73 240.732 155.094 240.582 155.474 240.582H159.379C159.758 240.582 160.122 240.732 160.391 241.001C160.659 241.269 160.81 241.633 160.81 242.012V243.55H163.642C164.112 243.55 164.577 243.643 165.011 243.822C165.444 244.002 165.839 244.265 166.171 244.598C166.503 244.93 166.766 245.324 166.946 245.758C167.126 246.192 167.218 246.657 167.218 247.126V250.538C167.218 251.008 167.126 251.473 166.946 251.907C166.766 252.341 166.503 252.735 166.171 253.067C165.839 253.399 165.444 253.663 165.011 253.842C164.577 254.022 164.112 254.114 163.642 254.114H66.8804C65.655 254.114 64.467 253.692 63.5166 252.918C62.5662 252.145 61.9115 251.067 61.6627 249.867L61.6257 249.895L0.7547 167.937L0.749146 167.93C0.183746 167.169 -0.0559998 166.214 0.0825806 165.275C0.221161 164.337 0.726761 163.492 1.48816 162.927Z" fill="#3F3D56"/>
<path d="M377.496 550.825L365.477 556.976L336.034 513.544L353.772 504.466L377.496 550.825Z" fill="#FFB7B7"/>
<path d="M238.683 567.652H225.181L218.758 515.575H238.685L238.683 567.652Z" fill="#FFB7B7"/>
<path d="M301.837 142.873C301.837 142.873 310.878 135.946 310.878 152.866L312.306 208.778L296.365 261.598L287.086 244.467L290.893 207.351L301.837 142.873Z" fill="#2F2E41"/>
<path d="M205.123 295.804C205.123 295.804 194.639 346.862 207.919 388.764L215.257 549.871L242.167 547.774L251.603 428.254L260.689 368.844L279.56 423.012L341.767 537.639L370.423 515.273C370.423 515.273 338.667 428.624 315.207 410.431L303.44 276.42L205.123 295.804Z" fill="#2F2E41"/>
<path d="M210.097 58.6429C201.969 43.774 207.434 25.1313 222.303 17.0032C237.172 8.87514 255.814 14.3397 263.942 29.2086C272.07 44.0775 266.606 62.7202 251.737 70.8483C236.868 78.9763 218.225 73.5118 210.097 58.6429Z" fill="#FFB7B7"/>
<path d="M239.191 50.4337C235.513 50.9123 232.739 47.1491 231.452 43.6704C230.165 40.1917 229.184 36.1418 225.987 34.2626C221.618 31.6954 216.028 34.7831 211.032 33.9361C205.39 32.9796 201.721 27 201.434 21.2846C201.146 15.5692 203.421 10.0722 205.652 4.8027L206.432 11.3515C206.327 9.13198 206.794 6.92281 207.788 4.93533C208.782 2.94786 210.269 1.24857 212.107 0L211.103 9.60941C211.316 8.28364 211.79 7.01314 212.496 5.8708C213.202 4.72846 214.126 3.73678 215.216 2.95267C216.307 2.16856 217.541 1.60745 218.848 1.30156C220.156 0.995668 221.511 0.951012 222.836 1.17015L222.678 6.8958C229.194 6.12091 235.768 5.34492 242.304 5.93527C248.84 6.52562 255.421 8.59355 260.375 12.898C267.785 19.3367 270.491 29.9388 269.583 39.7133C268.674 49.4877 264.639 58.67 260.434 67.5403C259.376 69.772 257.913 72.2904 255.459 72.5747C253.255 72.8301 251.238 70.9874 250.552 68.8767C250.024 66.711 250.045 64.4478 250.612 62.292C251.232 58.9974 252.013 55.6299 251.431 52.3285C250.848 49.0271 248.473 45.7648 245.145 45.3602C241.817 44.9556 238.411 48.7596 240.011 51.7056L239.191 50.4337Z" fill="white"/>
<path d="M203.224 309.458L305.643 302.85L297.934 270.913L204.326 291.838L203.224 309.458Z" fill="#CBCBCB"/>
<path d="M266.386 85.7703L259.962 76.8516C259.962 76.8516 252.782 79.2917 233.552 88.8634L232.194 97.2195L198.815 302.521L259.486 299.904L276.008 299.553L281.415 287.433L288.082 299.296L304.216 298.952L320.633 289.435L304.454 239.947L299.22 194.741L307.309 152.152C307.309 152.152 317.489 113.043 278.282 91.9565L266.386 85.7703Z" fill="#2F2E41"/>
<path d="M129.637 241.185C131.123 241.563 132.674 241.61 134.18 241.323C135.686 241.037 137.11 240.424 138.354 239.527C139.597 238.63 140.629 237.472 141.376 236.133C142.123 234.794 142.568 233.308 142.678 231.779L178.673 222.138L164.193 209.281L132.232 220.408C129.651 220.392 127.154 221.324 125.214 223.026C123.274 224.728 122.026 227.083 121.706 229.644C121.386 232.205 122.017 234.795 123.479 236.922C124.94 239.049 127.132 240.566 129.637 241.185V241.185Z" fill="#FFB7B7"/>
<path d="M145.759 235.742C146.516 236.154 147.351 236.403 148.21 236.471C149.069 236.539 149.933 236.425 150.746 236.138L209.959 213.664C224.405 208.543 236.499 198.35 243.991 184.979L268.684 140.931C270.418 138.995 271.753 136.737 272.613 134.284C273.473 131.832 273.842 129.235 273.697 126.64C273.552 124.046 272.897 121.505 271.769 119.164C270.641 116.823 269.063 114.727 267.124 112.997C265.185 111.266 262.924 109.935 260.471 109.08C258.017 108.224 255.419 107.86 252.824 108.01C250.23 108.16 247.691 108.819 245.352 109.951C243.013 111.084 240.92 112.666 239.193 114.608L196.453 182.349L142.666 213.884C141.612 214.575 140.796 215.574 140.328 216.745C139.86 217.916 139.762 219.202 140.049 220.43L142.724 231.764C143.011 232.979 143.662 234.078 144.59 234.914C144.945 235.235 145.338 235.513 145.759 235.742Z" fill="#2F2E41"/>
<path fill-rule="evenodd" clip-rule="evenodd" d="M243.549 566.231C244.74 569.7 245.332 572.294 245.327 574.015C245.322 575.545 245.143 577.587 244.79 580.144C244.551 581.874 242.652 583.166 240.407 583.159C232.911 583.135 215.221 583.08 187.336 582.993C185.243 582.987 183.387 581.851 183.154 580.236C182.595 576.363 183.711 574.245 186.503 573.886C189.518 573.496 192.079 573.141 194.187 572.818C194.699 572.739 195.187 572.589 195.631 572.377L223.16 559.226C223.703 558.967 224.337 559.232 224.577 559.818C224.581 559.827 224.585 559.838 224.589 559.848L225.922 563.374C226.22 564.163 226.865 564.853 227.779 565.27C230.284 566.414 232.368 566.989 234.031 566.994C235.626 566.999 237.831 566.309 240.646 564.927C241.726 564.396 243 564.912 243.49 566.078C243.512 566.128 243.531 566.179 243.549 566.231Z" fill="white"/>
<path fill-rule="evenodd" clip-rule="evenodd" d="M375.975 541.084C378.634 543.61 380.358 545.637 381.148 547.166C381.851 548.525 382.635 550.419 383.503 552.849C384.091 554.495 383.003 556.518 381.009 557.548C374.35 560.99 358.635 569.114 333.863 581.918C332.004 582.879 329.833 582.729 328.881 581.404C326.595 578.227 326.607 575.834 328.917 574.225C331.411 572.487 333.519 570.988 335.239 569.728C335.657 569.422 336.02 569.064 336.316 568.67L354.656 544.289C355.018 543.809 355.703 543.751 356.186 544.16C356.194 544.166 356.203 544.174 356.211 544.181L359.022 546.692C359.651 547.254 360.542 547.568 361.544 547.516C364.294 547.373 366.409 546.921 367.887 546.157C369.303 545.425 370.94 543.794 372.798 541.268C373.511 540.298 374.879 540.167 375.853 540.975C375.895 541.01 375.936 541.046 375.975 541.084Z" fill="white"/>
</g>
<defs>
<clipPath id="clip0">
<rect width="387" height="583" fill="white" transform="matrix(-1 0 0 1 387 0)"/>
</clipPath>
</defs>
</svg>
