<svg width="265" height="415" viewBox="0 0 265 415" fill="none" xmlns="http://www.w3.org/2000/svg">
<path fill-rule="evenodd" clip-rule="evenodd" d="M132.417 40.851C127.612 35.2375 124.359 28.3581 124.903 20.6494C126.469 -1.56118 157.537 3.32487 163.58 14.5349C169.623 25.7449 168.905 54.1801 161.095 56.1836C157.98 56.9827 151.344 55.0254 144.591 50.9744L148.83 80.8187H123.8L132.417 40.851Z" fill="#FFB8B8"/>
<path d="M141.228 31.9559C143.542 32.2591 145.288 29.8747 146.098 27.6705C146.907 25.4663 147.524 22.9002 149.536 21.7096C152.285 20.0829 155.802 22.0394 158.946 21.5027C162.496 20.8966 164.804 17.1078 164.984 13.4864C165.165 9.86502 163.734 6.382 162.33 3.0431L161.84 7.19259C161.906 5.78623 161.612 4.38644 160.987 3.12714C160.361 1.86783 159.426 0.79112 158.269 0L158.901 6.08873C158.767 5.2487 158.469 4.44368 158.025 3.71987C157.58 2.99606 156.999 2.36771 156.313 1.87088C155.627 1.37405 154.85 1.01852 154.028 0.824697C153.205 0.630878 152.352 0.602582 151.519 0.741434L151.618 4.36933C147.518 3.87834 143.382 3.38666 139.27 3.76072C135.158 4.13478 131.016 5.44507 127.9 8.17244C123.238 12.2522 121.535 18.9699 122.106 25.1632C122.678 31.3565 125.217 37.1746 127.863 42.795C128.528 44.2091 129.449 45.8048 130.993 45.9849C132.38 46.1468 133.649 44.9792 134.08 43.6418C134.412 42.2696 134.399 40.8355 134.043 39.4696C133.652 37.382 133.161 35.2483 133.528 33.1565C133.894 31.0647 135.389 28.9976 137.482 28.7412C139.576 28.4849 141.719 30.8952 140.712 32.7618L141.228 31.9559Z" fill="white"/>
<path fill-rule="evenodd" clip-rule="evenodd" d="M121.793 166.704L172.98 295.634L207.311 404.633H220.868L168.383 166.704H121.793Z" fill="#FFB8B8"/>
<path fill-rule="evenodd" clip-rule="evenodd" d="M111.485 166.704C110.94 212.011 102.991 273.009 101.721 275.834C100.874 277.716 71.6462 301.659 14.0363 347.663L23.3736 357.607C91.3479 318.164 126.908 295.813 130.053 290.552C134.772 282.661 150.133 210.048 162.466 166.704H111.485Z" fill="#FFB8B8"/>
<path fill-rule="evenodd" clip-rule="evenodd" d="M12.7874 344.343C9.65154 345.447 7.49134 346.493 6.30683 347.482C4.86617 348.684 2.96529 350.678 0.604172 353.465C2.00652 355.128 14.6097 370.075 38.4137 398.306C43.2673 396.239 44.79 393.821 42.9818 391.053C41.1736 388.285 39.6937 385.966 38.5423 384.098L30.3054 355.459C30.1469 354.908 29.5695 354.589 29.0158 354.747C29.0063 354.749 28.9969 354.752 28.9875 354.755L24.5923 356.143C21.5429 354.729 19.4056 353.295 18.1804 351.842C17.185 350.661 16.2894 348.63 15.4936 345.75C15.1882 344.644 14.0403 343.995 12.9295 344.299C12.8816 344.312 12.8342 344.327 12.7874 344.343Z" fill="white"/>
<path fill-rule="evenodd" clip-rule="evenodd" d="M201.76 399.602C200.593 402.701 200.01 405.02 200.01 406.559C200.01 408.431 200.323 411.162 200.95 414.752C203.131 414.752 222.738 414.752 259.771 414.752C261.299 409.724 260.417 407.008 257.124 406.607C253.83 406.207 251.095 405.844 248.916 405.521L221.577 393.392C221.051 393.158 220.434 393.394 220.2 393.917C220.196 393.926 220.192 393.935 220.188 393.944L218.431 398.187C215.382 399.602 212.905 400.31 210.998 400.31C209.45 400.31 207.311 399.687 204.582 398.442C203.535 397.965 202.297 398.422 201.817 399.464C201.796 399.509 201.777 399.555 201.76 399.602Z" fill="white"/>
<g style="mix-blend-mode:hard-light" filter="url(#filter0_d)">
<g style="mix-blend-mode:hard-light">
<path fill-rule="evenodd" clip-rule="evenodd" d="M156.208 393.407L220.664 386.445L172.894 166.704H115.164L156.208 393.407Z" fill="black"/>
</g>
</g>
<path fill-rule="evenodd" clip-rule="evenodd" d="M27.3688 331.62L69.6478 381.422C114.179 333.021 140.141 301.438 147.534 286.676C154.926 271.914 161.572 231.923 167.47 166.704H102.476C99.2542 224.081 97.0823 254.104 95.9606 256.774C94.8389 259.444 71.9749 284.393 27.3688 331.62Z" fill="black"/>
<path fill-rule="evenodd" clip-rule="evenodd" d="M213.018 153.834L242.561 182.515C251.157 186.164 258.2 190.193 263.69 194.603C264.925 196.085 266.269 198.925 260.46 197.654C254.651 196.383 248.483 195.306 247.391 197.186C246.299 199.066 249.516 201.947 247.499 204.408C246.153 206.048 241.629 200.831 233.926 188.755L203.206 170.73L213.018 153.834ZM68.5525 127.877L91.3892 127.961C73.996 184.041 64.7632 213.404 63.6907 216.049C61.2775 222 66.3841 231.064 68.5679 235.935C61.4553 239.103 62.2132 227.373 53.2408 231.527C45.0513 235.318 38.8215 242.189 29.3597 236.379C28.1964 235.664 26.9217 232.975 30.0016 230.874C37.675 225.637 48.7328 216.473 50.2269 213.456C52.2643 209.343 58.3729 180.817 68.5525 127.877Z" fill="#FEB8B8"/>
<path fill-rule="evenodd" clip-rule="evenodd" d="M138.14 63.4073L147.158 61.8679C161.364 111.843 234.355 145.907 238.836 164.59C240.479 171.44 235.524 174.904 238.084 176.99L226.362 185.53C224.377 183.225 220.141 187.441 211.295 184.492C202.449 181.543 138.14 122.582 138.14 63.4073Z" fill="#35353F"/>
<path fill-rule="evenodd" clip-rule="evenodd" d="M153.31 70.051C152.27 136.214 190.703 153.091 182.142 179.632C175.073 201.551 107.408 225.112 95.6993 203.628C90.9597 194.931 88.8093 184.412 88.5653 172.978C85.5727 181.763 83.206 189.326 81.465 195.667C78.4615 206.606 66.8176 208.345 66.8176 212.559L51.477 208.345C52.5175 202.62 45.2856 199.831 47.2247 187.041C55.9128 129.734 79.2564 88.1933 117.255 62.4199L117.648 56.8252C117.809 54.538 119.803 52.8135 122.101 52.9734L150.19 54.9282C152.489 55.0882 154.222 57.0719 154.061 59.3591L153.31 70.051Z" fill="#3F3D56"/>
<defs>
<filter id="filter0_d" x="111.164" y="166.704" width="113.5" height="234.703" filterUnits="userSpaceOnUse" color-interpolation-filters="sRGB">
<feFlood flood-opacity="0" result="BackgroundImageFix"/>
<feColorMatrix in="SourceAlpha" type="matrix" values="0 0 0 0 0 0 0 0 0 0 0 0 0 0 0 0 0 0 127 0"/>
<feOffset dy="4"/>
<feGaussianBlur stdDeviation="2"/>
<feColorMatrix type="matrix" values="0 0 0 0 0 0 0 0 0 0 0 0 0 0 0 0 0 0 0.25 0"/>
<feBlend mode="normal" in2="BackgroundImageFix" result="effect1_dropShadow"/>
<feBlend mode="normal" in="SourceGraphic" in2="effect1_dropShadow" result="shape"/>
</filter>
</defs>
</svg>
