<?xml version="1.0" standalone="no"?><svg xmlns="http://www.w3.org/2000/svg" viewBox="0 0 1440 320"><path fill="fff" fill-opacity="1" d="M0,320L34.3,309.3C68.6,299,137,277,206,245.3C274.3,213,343,171,411,170.7C480,171,549,213,617,240C685.7,267,754,277,823,282.7C891.4,288,960,288,1029,266.7C1097.1,245,1166,203,1234,176C1302.9,149,1371,139,1406,133.3L1440,128L1440,0L1405.7,0C1371.4,0,1303,0,1234,0C1165.7,0,1097,0,1029,0C960,0,891,0,823,0C754.3,0,686,0,617,0C548.6,0,480,0,411,0C342.9,0,274,0,206,0C137.1,0,69,0,34,0L0,0Z"></path></svg>