<svg width="320" height="311" viewBox="0 0 320 311" fill="none" xmlns="http://www.w3.org/2000/svg">
<path d="M142.4 1.60012C68.8 9.60012 9.60002 68.8001 1.60002 140.8C-6.39998 216 36.8 283.2 102.4 308.8C107.2 310.4 112 307.2 112 300.8V275.2C112 275.2 105.6 276.8 97.6 276.8C75.2 276.8 65.6 257.6 64 246.4C62.4 240 59.2 235.2 54.4 230.4C49.6 228.8 48 228.8 48 227.2C48 224 52.8 224 54.4 224C64 224 72 235.2 75.2 240C83.2 252.8 92.8 256 97.6 256C104 256 108.8 254.4 112 252.8C113.6 241.6 118.4 230.4 128 224C91.2 216 64 195.2 64 160C64 142.4 72 124.8 83.2 112C81.6 108.8 80 100.8 80 89.6001C80 83.2001 80 73.6001 84.8 64.0001C84.8 64.0001 107.2 64.0001 129.6 84.8001C137.6 81.6001 148.8 80.0001 160 80.0001C171.2 80.0001 182.4 81.6001 192 84.8001C212.8 64.0001 236.8 64.0001 236.8 64.0001C240 73.6001 240 83.2001 240 89.6001C240 102.4 238.4 108.8 236.8 112C248 124.8 256 140.8 256 160C256 195.2 228.8 216 192 224C201.6 232 208 246.4 208 260.8V302.4C208 307.2 212.8 312 219.2 310.4C278.4 286.4 320 228.8 320 161.6C320 65.6001 238.4 -9.59988 142.4 1.60012Z" fill="#303F9F"/>
</svg>
