<svg width="647" height="647" viewBox="0 0 647 647" fill="none" xmlns="http://www.w3.org/2000/svg">
<path fill-rule="evenodd" clip-rule="evenodd" d="M520.326 492.785H534.153C551.738 492.785 566.125 478.398 566.125 460.813V186.188C566.125 168.603 551.738 154.216 534.153 154.216H520.326V492.786V492.785Z" fill="#303F9F"/>
<path fill-rule="evenodd" clip-rule="evenodd" d="M324.852 368.137L324.475 368.402L323.499 367.715L322.523 368.402L322.145 368.137C241.22 311.143 161.862 250.161 80.8735 190.55L102.458 156.715L126.041 154.787L126.672 154.217L322.547 300.466L323.499 299.761L324.45 300.466L520.326 154.217L520.956 154.787L544.539 156.715L566.124 190.55C485.136 250.161 405.777 311.143 324.852 368.137H324.852Z" fill="#303F9F"/>
<path fill-rule="evenodd" clip-rule="evenodd" d="M126.673 492.785H112.847C95.2621 492.785 80.8752 478.398 80.8752 460.813V186.188C80.8752 168.603 95.262 154.216 112.847 154.216H126.673V492.786V492.785Z" fill="#303F9F"/>
<path d="M115.683 476.799H531.317V492.785H115.683V476.799Z" fill="#303F9F"/>
<path d="M115.683 154.216H531.317V170.202H115.683V154.216Z" fill="#303F9F"/>
</svg>
