<svg width="512" height="512" viewBox="0 0 512 512" fill="none" xmlns="http://www.w3.org/2000/svg">
<path d="M107.644 470.877L74.633 100.62H437.367L404.321 470.819L255.778 512L107.644 470.877Z" fill="#303F9F"/>
<path d="M256 480.523L376.03 447.246L404.27 130.894H256V480.523Z" fill="#303F9F"/>
<path d="M256 268.217H195.91L191.76 221.716H256V176.305H255.843H142.132L143.219 188.488L154.38 313.627H256V268.217Z" fill="#EBEBEB"/>
<path d="M256 386.153L255.801 386.206L205.227 372.55L201.994 336.333H177.419H156.409L162.771 407.634L255.791 433.457L256 433.399V386.153Z" fill="#EBEBEB"/>
<path d="M108.382 0H131.459V22.8H152.569V0H175.647V69.044H152.57V45.924H131.46V69.044H108.383V0H108.382Z" fill="#303F9F"/>
<path d="M205.994 22.896H185.678V0H249.398V22.896H229.073V69.044H205.995V22.896H205.994Z" fill="#303F9F"/>
<path d="M259.511 0H283.574L298.376 24.26L313.163 0H337.235V69.044H314.253V34.822L298.376 59.371H297.979L282.091 34.822V69.044H259.511V0V0Z" fill="#303F9F"/>
<path d="M348.72 0H371.804V46.222H404.257V69.044H348.72V0Z" fill="#303F9F"/>
<path d="M255.843 268.217V313.627H311.761L306.49 372.521L255.843 386.191V433.435L348.937 407.634L349.62 399.962L360.291 280.411L361.399 268.217H349.162H255.843Z" fill="white"/>
<path d="M255.843 176.305V204.509V221.605V221.716H365.385H365.531L366.442 211.509L368.511 188.488L369.597 176.305H255.843Z" fill="white"/>
</svg>
