<svg width="425" height="404" viewBox="0 0 425 404" fill="none" xmlns="http://www.w3.org/2000/svg">
<path d="M294.24 282.16C309.9 280.54 321.78 267.04 321.24 250.84C320.7 234.64 307.2 221.68 291 221.68H289.92C273.18 222.22 260.22 236.26 260.76 253C261.3 261.1 264.54 268.12 269.4 272.98C251.04 309.16 222.96 335.62 180.84 357.76C152.22 372.88 122.52 378.28 92.82 374.5C68.52 371.26 49.62 360.46 37.74 342.64C20.46 316.18 18.84 287.56 33.42 258.94C43.68 238.42 59.88 223.3 70.14 215.74C67.98 208.72 64.74 196.84 63.12 188.2C-15.18 244.9 -7.08 321.58 16.68 357.76C34.5 384.76 70.68 401.5 110.64 401.5C121.44 401.5 132.24 400.42 143.04 397.72C212.16 384.22 264.54 343.18 294.24 282.16V282.16Z" fill="#303F9F"/>
<path d="M389.28 215.2C348.24 167.14 287.76 140.68 218.64 140.68H210C205.14 130.96 194.88 124.48 183.54 124.48H182.46C165.72 125.02 152.76 139.06 153.3 155.8C153.84 172 167.34 184.96 183.54 184.96H184.62C196.5 184.42 206.76 176.86 211.08 166.6H220.8C261.84 166.6 300.72 178.48 335.82 201.7C362.82 219.52 382.26 242.74 393.06 270.82C402.24 293.5 401.7 315.64 391.98 334.54C376.86 363.16 351.48 378.82 318 378.82C296.4 378.82 275.88 372.34 265.08 367.48C259.14 372.88 248.34 381.52 240.78 386.92C264 397.72 287.76 403.66 310.44 403.66C362.28 403.66 400.62 375.04 415.2 346.42C430.86 315.1 429.78 261.1 389.28 215.2Z" fill="#303F9F"/>
<path d="M114.96 291.34C115.5 307.54 129 320.5 145.2 320.5H146.28C163.02 319.96 175.98 305.92 175.44 289.18C174.9 272.98 161.4 260.02 145.2 260.02H144.12C143.04 260.02 141.42 260.02 140.34 260.56C118.2 223.84 109.02 183.88 112.26 140.68C114.42 108.28 125.22 80.2003 144.12 56.9803C159.78 37.0003 190.02 27.2803 210.54 26.7403C267.78 25.6603 292.08 96.9403 293.7 125.56C300.72 127.18 312.6 130.96 320.7 133.66C314.22 46.1803 260.22 0.820312 208.38 0.820312C159.78 0.820312 114.96 35.9203 97.14 87.7603C72.3 156.88 88.5 223.3 118.74 275.68C116.04 279.46 114.42 285.4 114.96 291.34V291.34Z" fill="#303F9F"/>
</svg>
